<svg width="156" height="192" viewBox="0 0 156 192" fill="none" xmlns="http://www.w3.org/2000/svg">
<path d="M49.2754 52.261C45.5033 56.0331 42.5112 60.5112 40.4697 65.4397C38.4282 70.3683 37.377 75.6509 37.377 80.9856C37.377 86.32 38.4284 91.6021 40.4697 96.5305C42.5112 101.459 45.5032 105.938 49.2754 109.71L22.7012 136.284C15.4393 129.023 9.6782 120.401 5.74805 110.913C2.5396 103.167 0.60331 94.9671 0 86.6292H12.6953C16.2574 86.629 19.1445 83.741 19.1445 80.179C19.1445 76.6169 16.2573 73.7289 12.6953 73.7288H0.133789C0.858991 65.947 2.74675 58.3037 5.74805 51.0579C9.6782 41.5696 15.4392 32.9478 22.7012 25.6858L49.2754 52.261Z" fill="#E1E1E1"/>
<path d="M133.299 25.6858C140.561 32.9478 146.321 41.5696 150.252 51.0579C153.253 58.3037 155.141 65.9469 155.866 73.7288H144.918C141.355 73.7288 138.467 76.6168 138.467 80.179C138.467 83.7411 141.355 86.6292 144.918 86.6292H156C155.396 94.9671 153.46 103.167 150.252 110.913C146.321 120.401 140.561 129.023 133.299 136.284L106.724 109.71C110.496 105.938 113.489 101.459 115.531 96.5305C117.572 91.6022 118.623 86.32 118.623 80.9856C118.623 75.651 117.572 70.3682 115.531 65.4397C113.489 60.5111 110.496 56.0332 106.724 52.261L133.299 25.6858Z" fill="#264175"/>
<path d="M35.5334 184V158.545H41.6858V168.762H51.716V158.545H57.8559V184H51.716V173.771H41.6858V184H35.5334ZM67.8674 158.545V184H61.7151V158.545H67.8674ZM88.4343 166.86C88.2934 166.338 88.0862 165.879 87.8128 165.481C87.5394 165.075 87.2038 164.731 86.8061 164.449C86.4083 164.167 85.9526 163.956 85.4389 163.815C84.9251 163.666 84.3617 163.592 83.7485 163.592C82.5139 163.592 81.445 163.89 80.5419 164.487C79.647 165.083 78.9551 165.953 78.4662 167.097C77.9773 168.232 77.7329 169.611 77.7329 171.235C77.7329 172.868 77.9691 174.26 78.4414 175.412C78.9137 176.563 79.5973 177.442 80.4921 178.047C81.387 178.651 82.4725 178.954 83.7485 178.954C84.8754 178.954 85.8283 178.772 86.6072 178.407C87.3944 178.034 87.991 177.508 88.397 176.828C88.803 176.149 89.006 175.349 89.006 174.43L90.1495 174.566H83.9598V170.08H94.9346V173.448C94.9346 175.726 94.4499 177.678 93.4804 179.302C92.5193 180.926 91.1935 182.173 89.5032 183.043C87.8211 183.913 85.8863 184.348 83.6988 184.348C81.271 184.348 79.1374 183.822 77.2979 182.77C75.4584 181.717 74.0249 180.217 72.9975 178.27C71.97 176.315 71.4563 173.995 71.4563 171.31C71.4563 169.222 71.767 167.37 72.3885 165.754C73.0099 164.13 73.8758 162.755 74.9861 161.628C76.1047 160.501 77.3973 159.647 78.8639 159.067C80.3389 158.487 81.9256 158.197 83.6242 158.197C85.0992 158.197 86.4705 158.409 87.7382 158.831C89.0143 159.254 90.1412 159.85 91.1189 160.621C92.105 161.392 92.9045 162.307 93.5177 163.368C94.1309 164.429 94.512 165.593 94.6612 166.86H88.4343ZM98.5608 184V158.545H104.713V168.762H114.743V158.545H120.883V184H114.743V173.771H104.713V184H98.5608Z" fill="black"/>
<mask id="path-4-outside-1_50_2" maskUnits="userSpaceOnUse" x="19.5746" y="0" width="117" height="56" fill="black">
<rect fill="white" x="19.5746" width="117" height="56"/>
<path d="M83.722 3C91.9898 3.62001 100.119 5.55112 107.802 8.7334C117.29 12.6635 125.911 18.4238 133.173 25.6855L106.599 52.2607C102.827 48.4886 98.3478 45.4956 93.4193 43.4541C88.491 41.4128 83.2087 40.3624 77.8744 40.3623C72.5398 40.3623 67.257 41.4127 62.3285 43.4541C57.4 45.4956 52.9219 48.4886 49.1498 52.2607L22.5746 25.6855C29.8365 18.4236 38.4585 12.6635 47.9467 8.7334C55.2561 5.70576 62.9701 3.81063 70.8226 3.09961V14.0674C70.8226 17.6295 73.7107 20.5176 77.2728 20.5176C80.8348 20.5174 83.722 17.6294 83.722 14.0674V3Z"/>
</mask>
<path d="M83.722 3C91.9898 3.62001 100.119 5.55112 107.802 8.7334C117.29 12.6635 125.911 18.4238 133.173 25.6855L106.599 52.2607C102.827 48.4886 98.3478 45.4956 93.4193 43.4541C88.491 41.4128 83.2087 40.3624 77.8744 40.3623C72.5398 40.3623 67.257 41.4127 62.3285 43.4541C57.4 45.4956 52.9219 48.4886 49.1498 52.2607L22.5746 25.6855C29.8365 18.4236 38.4585 12.6635 47.9467 8.7334C55.2561 5.70576 62.9701 3.81063 70.8226 3.09961V14.0674C70.8226 17.6295 73.7107 20.5176 77.2728 20.5176C80.8348 20.5174 83.722 17.6294 83.722 14.0674V3Z" fill="#E1E1E1"/>
<path d="M83.722 3L83.8716 1.0056L81.722 0.844402V3H83.722ZM107.802 8.7334L108.568 6.88564L108.567 6.88564L107.802 8.7334ZM133.173 25.6855L134.587 27.0997L136.002 25.6855L134.587 24.2713L133.173 25.6855ZM106.599 52.2607L105.185 53.675L106.599 55.0892L108.013 53.6749L106.599 52.2607ZM93.4193 43.4541L94.1847 41.6063L94.1847 41.6063L93.4193 43.4541ZM77.8744 40.3623L77.8744 38.3623L77.8744 38.3623L77.8744 40.3623ZM62.3285 43.4541L61.5631 41.6063L61.5631 41.6063L62.3285 43.4541ZM49.1498 52.2607L47.7356 53.675L49.1498 55.0892L50.564 53.675L49.1498 52.2607ZM22.5746 25.6855L21.1604 24.2713L19.7462 25.6855L21.1604 27.0998L22.5746 25.6855ZM47.9467 8.7334L47.1813 6.88564L47.1813 6.88564L47.9467 8.7334ZM70.8226 3.09961H72.8226V0.910336L70.6423 1.10776L70.8226 3.09961ZM70.8226 14.0674L72.8226 14.0674V14.0674H70.8226ZM77.2728 20.5176L77.2728 22.5176L77.2729 22.5176L77.2728 20.5176ZM83.722 14.0674L85.722 14.0674V14.0674H83.722ZM83.722 3L83.5725 4.9944C91.6289 5.59856 99.5507 7.48031 107.037 10.5812L107.802 8.7334L108.567 6.88564C100.688 3.62194 92.3507 1.64145 83.8716 1.0056L83.722 3ZM107.802 8.7334L107.037 10.5812C116.282 14.4108 124.683 20.0237 131.759 27.0998L133.173 25.6855L134.587 24.2713C127.14 16.8238 118.298 10.9163 108.568 6.88564L107.802 8.7334ZM133.173 25.6855L131.759 24.2714L105.185 50.8466L106.599 52.2607L108.013 53.6749L134.587 27.0997L133.173 25.6855ZM106.599 52.2607L108.013 50.8465C104.055 46.8887 99.3559 43.7483 94.1847 41.6063L93.4193 43.4541L92.6539 45.3019C97.3398 47.2428 101.598 50.0885 105.185 53.675L106.599 52.2607ZM93.4193 43.4541L94.1847 41.6063C89.0136 39.4645 83.4713 38.3624 77.8744 38.3623L77.8744 40.3623L77.8744 42.3623C82.9461 42.3624 87.9684 43.3611 92.654 45.3019L93.4193 43.4541ZM77.8744 40.3623L77.8744 38.3623C72.2773 38.3623 66.7344 39.4644 61.5631 41.6063L62.3285 43.4541L63.0938 45.3019C67.7796 43.361 72.8024 42.3623 77.8744 42.3623L77.8744 40.3623ZM62.3285 43.4541L61.5631 41.6063C56.3918 43.7484 51.6933 46.8888 47.7356 50.8465L49.1498 52.2607L50.564 53.675C54.1506 50.0884 58.4082 47.2427 63.0939 45.3019L62.3285 43.4541ZM49.1498 52.2607L50.564 50.8465L23.9888 24.2713L22.5746 25.6855L21.1604 27.0998L47.7356 53.675L49.1498 52.2607ZM22.5746 25.6855L23.9888 27.0998C31.065 20.0236 39.4664 14.4108 48.712 10.5812L47.9467 8.7334L47.1813 6.88564C37.4505 10.9162 28.6081 16.8236 21.1604 24.2713L22.5746 25.6855ZM47.9467 8.7334L48.712 10.5812C55.8344 7.63099 63.3511 5.7843 71.003 5.09146L70.8226 3.09961L70.6423 1.10776C62.589 1.83695 54.6778 3.78053 47.1813 6.88564L47.9467 8.7334ZM70.8226 3.09961H68.8226V14.0674H70.8226H72.8226V3.09961H70.8226ZM70.8226 14.0674L68.8226 14.0674C68.8226 18.7341 72.6061 22.5176 77.2728 22.5176L77.2728 20.5176L77.2728 18.5176C74.8152 18.5176 72.8226 16.525 72.8226 14.0674L70.8226 14.0674ZM77.2728 20.5176L77.2729 22.5176C81.9397 22.5173 85.722 18.7337 85.722 14.0674L83.722 14.0674L81.722 14.0674C81.722 16.5252 79.73 18.5175 77.2727 18.5176L77.2728 20.5176ZM83.722 14.0674H85.722V3H83.722H81.722V14.0674H83.722Z" fill="#F5F5F5" mask="url(#path-4-outside-1_50_2)"/>
<path d="M93.2098 77.2234C91.7347 69.839 85.2165 64.2751 77.3983 64.2751C68.4931 64.2752 61.2735 71.494 61.2733 80.3992C61.2733 89.3045 68.493 96.5241 77.3983 96.5242C84.6205 96.5242 90.7341 91.7761 92.787 85.2312L133.835 81.2058L93.2098 77.2234Z" fill="black"/>
</svg>
