<svg width="809" height="253" viewBox="0 0 809 253" fill="none" xmlns="http://www.w3.org/2000/svg">
<rect x="6" y="6" width="797" height="241" fill="#F2F9FF" stroke="#264175" stroke-width="12"/>
<path d="M650.275 87.261C646.503 91.0331 643.511 95.5112 641.47 100.44C639.428 105.368 638.377 110.651 638.377 115.986C638.377 121.32 639.428 126.602 641.47 131.531C643.511 136.459 646.503 140.938 650.275 144.71L623.701 171.284C616.439 164.023 610.678 155.401 606.748 145.913C603.54 138.167 601.603 129.967 601 121.629H613.695C617.257 121.629 620.145 118.741 620.145 115.179C620.144 111.617 617.257 108.729 613.695 108.729H601.134C601.859 100.947 603.747 93.3037 606.748 86.0579C610.678 76.5696 616.439 67.9478 623.701 60.6858L650.275 87.261Z" fill="#73CEEA"/>
<path d="M734.299 60.6858C741.561 67.9478 747.321 76.5696 751.252 86.0579C754.253 93.3037 756.141 100.947 756.866 108.729H745.918C742.355 108.729 739.467 111.617 739.467 115.179C739.467 118.741 742.355 121.629 745.918 121.629H757C756.396 129.967 754.46 138.167 751.252 145.913C747.321 155.401 741.561 164.023 734.299 171.284L707.724 144.71C711.496 140.938 714.489 136.459 716.531 131.531C718.572 126.602 719.623 121.32 719.623 115.986C719.623 110.651 718.572 105.368 716.531 100.44C714.489 95.5111 711.496 91.0332 707.724 87.261L734.299 60.6858Z" fill="#264175"/>
<path d="M646.016 209V188.636H650.322V197.038H659.062V188.636H663.357V209H659.062V200.588H650.322V209H646.016ZM671.212 188.636V209H666.907V188.636H671.212ZM688.258 195.219C688.118 194.735 687.923 194.307 687.671 193.936C687.419 193.558 687.111 193.24 686.746 192.982C686.388 192.716 685.977 192.514 685.513 192.375C685.056 192.236 684.549 192.166 683.992 192.166C682.951 192.166 682.036 192.425 681.248 192.942C680.465 193.459 679.856 194.211 679.418 195.199C678.981 196.18 678.762 197.38 678.762 198.798C678.762 200.217 678.977 201.423 679.408 202.418C679.839 203.412 680.449 204.171 681.238 204.695C682.027 205.212 682.958 205.47 684.032 205.47C685.006 205.47 685.838 205.298 686.527 204.953C687.224 204.602 687.754 204.108 688.118 203.472C688.49 202.835 688.675 202.083 688.675 201.214L689.55 201.344H684.3V198.102H692.822V200.668C692.822 202.457 692.444 203.995 691.688 205.281C690.932 206.561 689.892 207.548 688.566 208.244C687.24 208.934 685.722 209.278 684.012 209.278C682.103 209.278 680.426 208.857 678.981 208.016C677.536 207.167 676.409 205.964 675.6 204.406C674.798 202.842 674.397 200.986 674.397 198.838C674.397 197.187 674.635 195.716 675.113 194.423C675.597 193.124 676.273 192.024 677.141 191.122C678.009 190.221 679.02 189.535 680.174 189.064C681.327 188.593 682.577 188.358 683.922 188.358C685.076 188.358 686.15 188.527 687.144 188.865C688.138 189.196 689.02 189.667 689.789 190.277C690.564 190.887 691.197 191.613 691.688 192.455C692.179 193.29 692.493 194.211 692.633 195.219H688.258ZM696.056 209V188.636H700.361V197.038H709.101V188.636H713.396V209H709.101V200.588H700.361V209H696.056Z" fill="black"/>
<path d="M684.722 38C692.99 38.62 701.119 40.5511 708.802 43.7334C718.29 47.6635 726.911 53.4238 734.173 60.6855L707.599 87.2607C703.827 83.4886 699.348 80.4956 694.419 78.4541C689.491 76.4128 684.209 75.3624 678.874 75.3623C673.54 75.3623 668.257 76.4127 663.328 78.4541C658.4 80.4956 653.922 83.4886 650.15 87.2607L623.575 60.6855C630.837 53.4236 639.458 47.6635 648.947 43.7334C656.256 40.7058 663.97 38.8106 671.823 38.0996V49.0674C671.823 52.6295 674.711 55.5176 678.273 55.5176C681.835 55.5174 684.722 52.6294 684.722 49.0674V38Z" fill="#348BD9"/>
<path d="M694.21 112.223C692.735 104.839 686.217 99.2751 678.398 99.2751C669.493 99.2752 662.273 106.494 662.273 115.399C662.273 124.304 669.493 131.524 678.398 131.524C685.62 131.524 691.734 126.776 693.787 120.231L734.835 116.206L694.21 112.223Z" fill="black"/>
<rect x="635" y="241" width="124" height="12" fill="white"/>
<rect x="50" width="124" height="12" fill="white"/>
</svg>
