<svg width="156" height="185" viewBox="0 0 156 185" fill="none" xmlns="http://www.w3.org/2000/svg">
<path d="M49.2754 51.261C45.5033 55.0331 42.5112 59.5112 40.4697 64.4397C38.4282 69.3683 37.377 74.6509 37.377 79.9856C37.377 85.32 38.4284 90.6021 40.4697 95.5305C42.5112 100.459 45.5032 104.938 49.2754 108.71L22.7012 135.284C15.4393 128.023 9.6782 119.401 5.74805 109.913C2.5396 102.167 0.60331 93.9671 0 85.6292H12.6953C16.2574 85.629 19.1445 82.741 19.1445 79.179C19.1445 75.6169 16.2573 72.7289 12.6953 72.7288H0.133789C0.858992 64.947 2.74675 57.3037 5.74805 50.0579C9.6782 40.5696 15.4392 31.9478 22.7012 24.6858L49.2754 51.261Z" fill="#E1E1E1"/>
<path d="M133.299 24.6858C140.561 31.9478 146.321 40.5696 150.252 50.0579C153.253 57.3037 155.141 64.9469 155.866 72.7288H144.918C141.355 72.7288 138.467 75.6168 138.467 79.179C138.467 82.7411 141.355 85.6292 144.918 85.6292H156C155.396 93.9671 153.46 102.167 150.252 109.913C146.321 119.401 140.561 128.023 133.299 135.284L106.724 108.71C110.496 104.938 113.489 100.459 115.531 95.5305C117.572 90.6022 118.623 85.32 118.623 79.9856C118.623 74.651 117.572 69.3682 115.531 64.4397C113.489 59.5111 110.496 55.0332 106.724 51.261L133.299 24.6858Z" fill="#264175"/>
<path d="M42.1097 178V156.182H46.7226V165.184H56.087V156.182H60.6892V178H56.087V168.987H46.7226V178H42.1097ZM69.1054 156.182V178H64.4925V156.182H69.1054ZM87.368 163.234C87.2189 162.716 87.0094 162.258 86.7395 161.86C86.4696 161.455 86.1393 161.114 85.7487 160.837C85.3652 160.553 84.9248 160.337 84.4277 160.188C83.9376 160.038 83.3943 159.964 82.7977 159.964C81.6827 159.964 80.7025 160.241 79.8574 160.795C79.0193 161.349 78.3659 162.155 77.8972 163.213C77.4284 164.264 77.194 165.55 77.194 167.07C77.194 168.589 77.4248 169.882 77.8865 170.947C78.3481 172.013 79.0016 172.826 79.8467 173.387C80.6919 173.941 81.6898 174.218 82.8403 174.218C83.8844 174.218 84.7757 174.033 85.5143 173.664C86.2601 173.288 86.8283 172.759 87.2189 172.077C87.6166 171.395 87.8155 170.589 87.8155 169.658L88.753 169.797H83.128V166.324H92.2579V169.072C92.2579 170.99 91.8531 172.638 91.0435 174.016C90.2338 175.386 89.1187 176.445 87.6983 177.19C86.2778 177.929 84.6514 178.298 82.819 178.298C80.7736 178.298 78.9767 177.847 77.4284 176.945C75.8801 176.036 74.6727 174.747 73.8062 173.078C72.9469 171.402 72.5172 169.413 72.5172 167.112C72.5172 165.344 72.7729 163.767 73.2842 162.382C73.8027 160.99 74.5271 159.811 75.4575 158.845C76.3879 157.879 77.471 157.144 78.7068 156.64C79.9426 156.136 81.2814 155.884 82.7231 155.884C83.9589 155.884 85.1095 156.065 86.1748 156.427C87.2402 156.782 88.1848 157.286 89.0087 157.94C89.8396 158.593 90.5179 159.371 91.0435 160.273C91.569 161.168 91.9064 162.155 92.0555 163.234H87.368ZM95.723 178V156.182H100.336V165.184H109.7V156.182H114.303V178H109.7V168.987H100.336V178H95.723Z" fill="black"/>
<mask id="path-4-outside-1_43_340" maskUnits="userSpaceOnUse" x="20.5746" y="0" width="115" height="53" fill="black">
<rect fill="white" x="20.5746" width="115" height="53"/>
<path d="M83.722 2C91.9898 2.62001 100.119 4.55112 107.802 7.7334C117.29 11.6635 125.911 17.4238 133.173 24.6855L106.599 51.2607C102.827 47.4886 98.3478 44.4956 93.4193 42.4541C88.491 40.4128 83.2087 39.3624 77.8744 39.3623C72.5398 39.3623 67.257 40.4127 62.3285 42.4541C57.4 44.4956 52.9219 47.4886 49.1498 51.2607L22.5746 24.6855C29.8365 17.4236 38.4585 11.6635 47.9467 7.7334C55.2561 4.70576 62.9701 2.81063 70.8226 2.09961V13.0674C70.8226 16.6295 73.7107 19.5176 77.2728 19.5176C80.8348 19.5174 83.722 16.6294 83.722 13.0674V2Z"/>
</mask>
<path d="M83.722 2C91.9898 2.62001 100.119 4.55112 107.802 7.7334C117.29 11.6635 125.911 17.4238 133.173 24.6855L106.599 51.2607C102.827 47.4886 98.3478 44.4956 93.4193 42.4541C88.491 40.4128 83.2087 39.3624 77.8744 39.3623C72.5398 39.3623 67.257 40.4127 62.3285 42.4541C57.4 44.4956 52.9219 47.4886 49.1498 51.2607L22.5746 24.6855C29.8365 17.4236 38.4585 11.6635 47.9467 7.7334C55.2561 4.70576 62.9701 2.81063 70.8226 2.09961V13.0674C70.8226 16.6295 73.7107 19.5176 77.2728 19.5176C80.8348 19.5174 83.722 16.6294 83.722 13.0674V2Z" fill="#E1E1E1"/>
<path d="M83.722 2L83.7968 1.0028L82.722 0.922201V2H83.722ZM107.802 7.7334L108.185 6.80952L108.185 6.80952L107.802 7.7334ZM133.173 24.6855L133.88 25.3926L134.587 24.6855L133.88 23.9784L133.173 24.6855ZM106.599 51.2607L105.892 51.9678L106.599 52.675L107.306 51.9678L106.599 51.2607ZM93.4193 42.4541L93.802 41.5302L93.802 41.5302L93.4193 42.4541ZM77.8744 39.3623L77.8744 38.3623H77.8744V39.3623ZM62.3285 42.4541L61.9458 41.5302H61.9458L62.3285 42.4541ZM49.1498 51.2607L48.4427 51.9678L49.1498 52.675L49.8569 51.9679L49.1498 51.2607ZM22.5746 24.6855L21.8675 23.9784L21.1604 24.6855L21.8675 25.3927L22.5746 24.6855ZM47.9467 7.7334L47.564 6.80952L47.564 6.80952L47.9467 7.7334ZM70.8226 2.09961H71.8226V1.00497L70.7325 1.10368L70.8226 2.09961ZM70.8226 13.0674H71.8226H70.8226ZM77.2728 19.5176V20.5176H77.2729L77.2728 19.5176ZM83.722 13.0674H84.722H83.722ZM83.722 2L83.6473 2.9972C91.8094 3.60928 99.8351 5.51572 107.419 8.65728L107.802 7.7334L108.185 6.80952C100.404 3.58653 92.1702 1.63073 83.7968 1.0028L83.722 2ZM107.802 7.7334L107.419 8.65728C116.786 12.5371 125.297 18.2238 132.466 25.3927L133.173 24.6855L133.88 23.9784C126.526 16.6238 117.794 10.7899 108.185 6.80952L107.802 7.7334ZM133.173 24.6855L132.466 23.9785L105.892 50.5536L106.599 51.2607L107.306 51.9678L133.88 25.3926L133.173 24.6855ZM106.599 51.2607L107.306 50.5536C103.441 46.6887 98.8519 43.622 93.802 41.5302L93.4193 42.4541L93.0366 43.378C97.8438 45.3692 102.213 48.2886 105.892 51.9678L106.599 51.2607ZM93.4193 42.4541L93.802 41.5302C88.7523 39.4387 83.34 38.3624 77.8744 38.3623L77.8744 39.3623L77.8744 40.3623C83.0774 40.3624 88.2297 41.3869 93.0366 43.378L93.4193 42.4541ZM77.8744 39.3623V38.3623C72.4086 38.3623 66.9957 39.4385 61.9458 41.5302L62.3285 42.4541L62.7112 43.378C67.5183 41.3869 72.6711 40.3623 77.8744 40.3623V39.3623ZM62.3285 42.4541L61.9458 41.5302C56.8959 43.622 52.3076 46.6887 48.4427 50.5536L49.1498 51.2607L49.8569 51.9679C53.5362 48.2885 57.9041 45.3691 62.7112 43.378L62.3285 42.4541ZM49.1498 51.2607L49.8569 50.5536L23.2817 23.9784L22.5746 24.6855L21.8675 25.3927L48.4427 51.9678L49.1498 51.2607ZM22.5746 24.6855L23.2817 25.3927C30.4508 18.2236 38.9624 12.5372 48.3293 8.65728L47.9467 7.7334L47.564 6.80952C37.9545 10.7899 29.2223 16.6236 21.8675 23.9784L22.5746 24.6855ZM47.9467 7.7334L48.3293 8.65728C55.5453 5.66838 63.1606 3.79746 70.9128 3.09554L70.8226 2.09961L70.7325 1.10368C62.7795 1.82379 54.9669 3.74314 47.564 6.80952L47.9467 7.7334ZM70.8226 2.09961H69.8226V13.0674H70.8226H71.8226V2.09961H70.8226ZM70.8226 13.0674H69.8226C69.8226 17.1818 73.1584 20.5176 77.2728 20.5176V19.5176V18.5176C74.2629 18.5176 71.8226 16.0773 71.8226 13.0674H70.8226ZM77.2728 19.5176L77.2729 20.5176C81.3873 20.5174 84.722 17.1816 84.722 13.0674H83.722H82.722C82.722 16.0773 80.2824 18.5174 77.2728 18.5176L77.2728 19.5176ZM83.722 13.0674H84.722V2H83.722H82.722V13.0674H83.722Z" fill="#F5F5F5" mask="url(#path-4-outside-1_43_340)"/>
<path d="M93.2098 76.2234C91.7347 68.8391 85.2165 63.2751 77.3983 63.2751C68.4931 63.2752 61.2735 70.494 61.2733 79.3992C61.2733 88.3045 68.493 95.5241 77.3983 95.5242C84.6205 95.5242 90.7341 90.7761 92.787 84.2312L133.835 80.2058L93.2098 76.2234Z" fill="black"/>
</svg>
