<svg width="230" height="208" viewBox="0 0 230 208" fill="none" xmlns="http://www.w3.org/2000/svg">
<path d="M84.25 129C81.4312 129 79.0191 128.003 77.0135 126.009C75.0079 124.015 74.0034 121.615 74 118.81V67.8571C74 65.0548 75.0045 62.6566 77.0135 60.6627C79.0225 58.6687 81.4347 57.6701 84.25 57.6667H89.375V47.4762C89.375 40.4278 91.8743 34.4205 96.8729 29.4543C101.871 24.4882 107.914 22.0034 115 22C122.086 21.9966 128.13 24.4814 133.132 29.4543C138.134 34.4273 140.632 40.4346 140.625 47.4762V57.6667H145.75C148.569 57.6667 150.983 58.6653 152.992 60.6627C155.001 62.66 156.003 65.0582 156 67.8571V118.81C156 121.612 154.997 124.012 152.992 126.009C150.986 128.006 148.572 129.003 145.75 129H84.25ZM115 103.524C117.819 103.524 120.233 102.527 122.242 100.533C124.251 98.539 125.253 96.1391 125.25 93.3333C125.247 90.5276 124.244 88.1294 122.242 86.1389C120.239 84.1483 117.826 83.1497 115 83.1429C112.174 83.1361 109.762 84.1347 107.763 86.1389C105.765 88.143 104.76 90.5411 104.75 93.3333C104.74 96.1255 105.744 98.5254 107.763 100.533C109.783 102.54 112.195 103.537 115 103.524ZM99.625 57.6667H130.375V47.4762C130.375 43.2302 128.88 39.621 125.891 36.6488C122.901 33.6766 119.271 32.1905 115 32.1905C110.729 32.1905 107.099 33.6766 104.109 36.6488C101.12 39.621 99.625 43.2302 99.625 47.4762V57.6667Z" fill="black"/>
<g filter="url(#filter0_f_297_10)">
<path d="M24.5226 158.602H28.1302L36.6129 179.321H36.9054L45.3881 158.602H48.9957V183.562H46.1681V164.598H45.9244L38.1242 183.562H35.3941L27.5939 164.598H27.3502V183.562H24.5226V158.602ZM76.1167 171.082C76.1167 173.714 75.6413 175.99 74.6907 177.907C73.74 179.825 72.4359 181.303 70.7784 182.343C69.1209 183.384 67.2277 183.904 65.0989 183.904C62.9701 183.904 61.0769 183.384 59.4194 182.343C57.7618 181.303 56.4577 179.825 55.5071 177.907C54.5564 175.99 54.0811 173.714 54.0811 171.082C54.0811 168.449 54.5564 166.174 55.5071 164.257C56.4577 162.339 57.7618 160.86 59.4194 159.82C61.0769 158.78 62.9701 158.26 65.0989 158.26C67.2277 158.26 69.1209 158.78 70.7784 159.82C72.4359 160.86 73.74 162.339 74.6907 164.257C75.6413 166.174 76.1167 168.449 76.1167 171.082ZM73.1916 171.082C73.1916 168.921 72.83 167.097 72.1069 165.61C71.3919 164.123 70.4209 162.997 69.194 162.234C67.9752 161.47 66.6102 161.088 65.0989 161.088C63.5876 161.088 62.2185 161.47 60.9916 162.234C59.7728 162.997 58.8018 164.123 58.0787 165.61C57.3637 167.097 57.0062 168.921 57.0062 171.082C57.0062 173.243 57.3637 175.067 58.0787 176.554C58.8018 178.041 59.7728 179.167 60.9916 179.93C62.2185 180.694 63.5876 181.076 65.0989 181.076C66.6102 181.076 67.9752 180.694 69.194 179.93C70.4209 179.167 71.3919 178.041 72.1069 176.554C72.83 175.067 73.1916 173.243 73.1916 171.082ZM88.9017 183.562H81.199V158.602H89.2429C91.6643 158.602 93.7362 159.101 95.4587 160.101C97.1813 161.092 98.5016 162.518 99.4198 164.379C100.338 166.231 100.797 168.449 100.797 171.033C100.797 173.633 100.334 175.872 99.4076 177.749C98.4813 179.617 97.1325 181.056 95.3612 182.063C93.5899 183.063 91.4368 183.562 88.9017 183.562ZM84.2216 180.881H88.7067C90.7705 180.881 92.4808 180.483 93.8378 179.687C95.1947 178.89 96.2063 177.757 96.8725 176.286C97.5388 174.815 97.8719 173.064 97.8719 171.033C97.8719 169.018 97.5429 167.283 96.8847 165.829C96.2266 164.366 95.2434 163.245 93.9353 162.465C92.6271 161.677 90.998 161.283 89.0479 161.283H84.2216V180.881ZM105.867 183.562V158.602H120.931V161.283H108.89V169.717H120.151V172.398H108.89V180.881H121.126V183.562H105.867ZM126.379 183.562V158.602H134.813C136.763 158.602 138.364 158.935 139.615 159.601C140.866 160.259 141.793 161.165 142.394 162.319C142.995 163.473 143.296 164.785 143.296 166.256C143.296 167.726 142.995 169.03 142.394 170.168C141.793 171.305 140.871 172.199 139.627 172.849C138.384 173.491 136.796 173.812 134.862 173.812H128.037V171.082H134.764C136.097 171.082 137.17 170.887 137.982 170.497C138.803 170.107 139.396 169.554 139.761 168.839C140.135 168.116 140.322 167.255 140.322 166.256C140.322 165.256 140.135 164.383 139.761 163.635C139.388 162.888 138.791 162.311 137.97 161.905C137.149 161.49 136.064 161.283 134.716 161.283H129.402V183.562H126.379ZM138.128 172.349L144.271 183.562H140.761L134.716 172.349H138.128ZM149.356 183.562H146.187L155.353 158.602H158.473L167.638 183.562H164.469L157.01 162.55H156.815L149.356 183.562ZM150.526 173.812H163.299V176.493H150.526V173.812ZM167.245 161.283V158.602H185.965V161.283H178.117V183.562H175.094V161.283H167.245ZM190.63 183.562V158.602H205.695V161.283H193.653V169.717H204.914V172.398H193.653V180.881H205.89V183.562H190.63Z" fill="black"/>
</g>
<defs>
<filter id="filter0_f_297_10" x="0.650242" y="134.388" width="229.112" height="73.388" filterUnits="userSpaceOnUse" color-interpolation-filters="sRGB">
<feFlood flood-opacity="0" result="BackgroundImageFix"/>
<feBlend mode="normal" in="SourceGraphic" in2="BackgroundImageFix" result="shape"/>
<feGaussianBlur stdDeviation="11.9362" result="effect1_foregroundBlur_297_10"/>
</filter>
</defs>
</svg>
