<svg width="809" height="253" viewBox="0 0 809 253" fill="none" xmlns="http://www.w3.org/2000/svg">
<rect x="6" y="6" width="797" height="241" fill="#F2F9FF" stroke="#73CEEA" stroke-width="12"/>
<path d="M650.275 86.2609C646.503 90.0331 643.511 94.5111 641.47 99.4396C639.428 104.368 638.377 109.651 638.377 114.986C638.377 120.32 639.428 125.602 641.47 130.53C643.511 135.459 646.503 139.938 650.275 143.71L623.701 170.284C616.439 163.022 610.678 154.401 606.748 144.913C603.54 137.167 601.603 128.967 601 120.629H613.695C617.257 120.629 620.145 117.741 620.145 114.179C620.145 110.617 617.257 107.729 613.695 107.729H601.134C601.859 99.9469 603.747 92.3037 606.748 85.0578C610.678 75.5696 616.439 66.9477 623.701 59.6857L650.275 86.2609Z" fill="#73CEEA"/>
<path d="M734.3 59.6857C741.562 66.9477 747.322 75.5696 751.252 85.0578C754.253 92.3037 756.141 99.9469 756.866 107.729H745.918C742.356 107.729 739.468 110.617 739.468 114.179C739.468 117.741 742.356 120.629 745.918 120.629H757C756.396 128.967 754.46 137.167 751.252 144.913C747.322 154.401 741.561 163.023 734.3 170.284L707.724 143.71C711.497 139.938 714.49 135.459 716.531 130.53C718.572 125.602 719.623 120.32 719.623 114.986C719.623 109.651 718.572 104.368 716.531 99.4396C714.49 94.5111 711.497 90.0331 707.724 86.2609L734.3 59.6857Z" fill="#264175"/>
<path d="M647.973 209V188.636H652.278V205.45H661.008V209H647.973ZM681.78 198.818C681.78 201.039 681.359 202.928 680.517 204.486C679.682 206.044 678.541 207.233 677.096 208.055C675.658 208.871 674.04 209.278 672.244 209.278C670.434 209.278 668.81 208.867 667.372 208.045C665.933 207.223 664.797 206.034 663.961 204.476C663.126 202.918 662.709 201.032 662.709 198.818C662.709 196.598 663.126 194.708 663.961 193.151C664.797 191.593 665.933 190.406 667.372 189.591C668.81 188.769 670.434 188.358 672.244 188.358C674.04 188.358 675.658 188.769 677.096 189.591C678.541 190.406 679.682 191.593 680.517 193.151C681.359 194.708 681.78 196.598 681.78 198.818ZM677.415 198.818C677.415 197.38 677.199 196.167 676.768 195.179C676.344 194.191 675.744 193.442 674.969 192.932C674.193 192.421 673.285 192.166 672.244 192.166C671.203 192.166 670.295 192.421 669.52 192.932C668.744 193.442 668.141 194.191 667.71 195.179C667.286 196.167 667.074 197.38 667.074 198.818C667.074 200.257 667.286 201.47 667.71 202.457C668.141 203.445 668.744 204.194 669.52 204.705C670.295 205.215 671.203 205.47 672.244 205.47C673.285 205.47 674.193 205.215 674.969 204.705C675.744 204.194 676.344 203.445 676.768 202.457C677.199 201.47 677.415 200.257 677.415 198.818ZM688.787 209L682.96 188.636H687.663L691.034 202.786H691.203L694.922 188.636H698.949L702.658 202.815H702.837L706.207 188.636H710.911L705.084 209H700.888L697.01 195.686H696.851L692.983 209H688.787Z" fill="black"/>
<path d="M684.722 37C692.99 37.62 701.119 39.5511 708.802 42.7334C718.29 46.6635 726.911 52.4238 734.173 59.6855L707.599 86.2607C703.827 82.4886 699.348 79.4956 694.419 77.4541C689.491 75.4128 684.209 74.3624 678.874 74.3623C673.54 74.3623 668.257 75.4127 663.328 77.4541C658.4 79.4956 653.922 82.4886 650.15 86.2607L623.574 59.6855C630.836 52.4236 639.458 46.6635 648.947 42.7334C656.256 39.7058 663.97 37.8106 671.823 37.0996V48.0674C671.823 51.6295 674.711 54.5176 678.273 54.5176C681.835 54.5174 684.722 51.6294 684.722 48.0674V37Z" fill="#348BD9"/>
<path d="M662.587 111.223C664.062 103.839 670.58 98.2751 678.399 98.2751C687.304 98.2752 694.524 105.494 694.524 114.399C694.524 123.304 687.304 130.524 678.399 130.524C671.177 130.524 665.064 125.776 663.011 119.231L621.962 115.206L662.587 111.223Z" fill="black"/>
<rect x="635" y="241" width="124" height="12" fill="white"/>
<rect x="50" width="124" height="12" fill="white"/>
</svg>
