<svg width="161" height="192" viewBox="0 0 161 192" fill="none" xmlns="http://www.w3.org/2000/svg">
<mask id="path-1-outside-1_50_36" maskUnits="userSpaceOnUse" x="0" y="23.6858" width="53" height="115" fill="black">
<rect fill="white" y="23.6858" width="53" height="115"/>
<path d="M51.2754 52.261C47.5033 56.0331 44.5112 60.5112 42.4697 65.4397C40.4282 70.3683 39.377 75.6509 39.377 80.9856C39.377 86.32 40.4284 91.6021 42.4697 96.5305C44.5112 101.459 47.5032 105.938 51.2754 109.71L24.7012 136.284C17.4393 129.023 11.6782 120.401 7.74805 110.913C4.5396 103.167 2.60331 94.9671 2 86.6292H14.6953C18.2574 86.629 21.1445 83.741 21.1445 80.179C21.1445 76.6169 18.2573 73.7289 14.6953 73.7288H2.13379C2.85899 65.947 4.74675 58.3037 7.74805 51.0579C11.6782 41.5696 17.4392 32.9478 24.7012 25.6858L51.2754 52.261Z"/>
</mask>
<path d="M51.2754 52.261C47.5033 56.0331 44.5112 60.5112 42.4697 65.4397C40.4282 70.3683 39.377 75.6509 39.377 80.9856C39.377 86.32 40.4284 91.6021 42.4697 96.5305C44.5112 101.459 47.5032 105.938 51.2754 109.71L24.7012 136.284C17.4393 129.023 11.6782 120.401 7.74805 110.913C4.5396 103.167 2.60331 94.9671 2 86.6292H14.6953C18.2574 86.629 21.1445 83.741 21.1445 80.179C21.1445 76.6169 18.2573 73.7289 14.6953 73.7288H2.13379C2.85899 65.947 4.74675 58.3037 7.74805 51.0579C11.6782 41.5696 17.4392 32.9478 24.7012 25.6858L51.2754 52.261Z" fill="#73CEEA"/>
<path d="M51.2754 52.261L51.9825 52.9681L52.6896 52.261L51.9825 51.5539L51.2754 52.261ZM42.4697 65.4397L41.5458 65.057L41.5458 65.057L42.4697 65.4397ZM39.377 80.9856L38.377 80.9856L38.377 80.9856L39.377 80.9856ZM42.4697 96.5305L41.5458 96.9132L41.5458 96.9132L42.4697 96.5305ZM51.2754 109.71L51.9825 110.417L52.6896 109.71L51.9825 109.003L51.2754 109.71ZM24.7012 136.284L23.9941 136.992L24.7012 137.699L25.4083 136.992L24.7012 136.284ZM7.74805 110.913L6.82417 111.296L6.82417 111.296L7.74805 110.913ZM2 86.6292V85.6292H0.925028L1.00261 86.7013L2 86.6292ZM14.6953 86.6292L14.6953 87.6292L14.6954 87.6292L14.6953 86.6292ZM21.1445 80.179L22.1445 80.179L22.1445 80.1789L21.1445 80.179ZM14.6953 73.7288L14.6954 72.7288H14.6953V73.7288ZM2.13379 73.7288L1.1381 73.636L1.03626 74.7288H2.13379V73.7288ZM7.74805 51.0579L6.82417 50.6752L6.82417 50.6752L7.74805 51.0579ZM24.7012 25.6858L25.4083 24.9787L24.7012 24.2716L23.9941 24.9787L24.7012 25.6858ZM51.2754 52.261L50.5683 51.5539C46.7033 55.4189 43.6376 60.0072 41.5458 65.057L42.4697 65.4397L43.3936 65.8224C45.3848 61.0152 48.3033 56.6474 51.9825 52.9681L51.2754 52.261ZM42.4697 65.4397L41.5458 65.057C39.4541 70.1069 38.377 75.5196 38.377 80.9856L39.377 80.9856L40.377 80.9856C40.377 75.7823 41.4024 70.6297 43.3936 65.8224L42.4697 65.4397ZM39.377 80.9856L38.377 80.9856C38.377 86.4515 39.4543 91.8636 41.5458 96.9132L42.4697 96.5305L43.3936 96.1478C41.4025 91.3407 40.377 86.1886 40.377 80.9856L39.377 80.9856ZM42.4697 96.5305L41.5458 96.9132C43.6376 101.963 46.7032 106.552 50.5683 110.417L51.2754 109.71L51.9825 109.003C48.3032 105.324 45.3849 100.955 43.3936 96.1478L42.4697 96.5305ZM51.2754 109.71L50.5683 109.003L23.9941 135.577L24.7012 136.284L25.4083 136.992L51.9825 110.417L51.2754 109.71ZM24.7012 136.284L25.4083 135.577C18.2392 128.408 12.5518 119.897 8.67192 110.531L7.74805 110.913L6.82417 111.296C10.8046 120.905 16.6393 129.637 23.9941 136.992L24.7012 136.284ZM7.74805 110.913L8.67193 110.531C5.50454 102.884 3.593 94.7884 2.99739 86.557L2 86.6292L1.00261 86.7013C1.61363 95.1458 3.57466 103.451 6.82417 111.296L7.74805 110.913ZM2 86.6292V87.6292H14.6953V86.6292V85.6292H2V86.6292ZM14.6953 86.6292L14.6954 87.6292C18.8098 87.629 22.1445 84.2932 22.1445 80.179H21.1445H20.1445C20.1445 83.1889 17.7049 85.629 14.6953 85.6292L14.6953 86.6292ZM21.1445 80.179L22.1445 80.1789C22.1445 76.0648 18.8098 72.7289 14.6954 72.7288L14.6953 73.7288L14.6953 74.7288C17.7049 74.7289 20.1445 77.169 20.1445 80.179L21.1445 80.179ZM14.6953 73.7288V72.7288H2.13379V73.7288V74.7288H14.6953V73.7288ZM2.13379 73.7288L3.12947 73.8215C3.84541 66.1392 5.70905 58.5936 8.67193 51.4405L7.74805 51.0579L6.82417 50.6752C3.78445 58.0138 1.87257 65.7548 1.1381 73.636L2.13379 73.7288ZM7.74805 51.0579L8.67193 51.4405C12.5518 42.0736 18.2392 33.562 25.4083 26.3929L24.7012 25.6858L23.9941 24.9787C16.6392 32.3335 10.8046 41.0656 6.82417 50.6752L7.74805 51.0579ZM24.7012 25.6858L23.9941 26.3929L50.5683 52.9681L51.2754 52.261L51.9825 51.5539L25.4083 24.9787L24.7012 25.6858Z" fill="#F5F5F5" mask="url(#path-1-outside-1_50_36)"/>
<mask id="path-3-outside-2_50_36" maskUnits="userSpaceOnUse" x="105.724" y="22.6858" width="55" height="117" fill="black">
<rect fill="white" x="105.724" y="22.6858" width="55" height="117"/>
<path d="M135.299 25.6858C142.561 32.9478 148.321 41.5696 152.252 51.0579C155.253 58.3037 157.141 65.9469 157.866 73.7288H146.918C143.355 73.7288 140.467 76.6168 140.467 80.179C140.467 83.7411 143.355 86.6292 146.918 86.6292H158C157.396 94.9671 155.46 103.167 152.252 110.913C148.321 120.401 142.561 129.023 135.299 136.284L108.724 109.71C112.496 105.938 115.489 101.459 117.531 96.5305C119.572 91.6022 120.623 86.32 120.623 80.9856C120.623 75.651 119.572 70.3682 117.531 65.4397C115.489 60.5111 112.496 56.0332 108.724 52.261L135.299 25.6858Z"/>
</mask>
<path d="M135.299 25.6858C142.561 32.9478 148.321 41.5696 152.252 51.0579C155.253 58.3037 157.141 65.9469 157.866 73.7288H146.918C143.355 73.7288 140.467 76.6168 140.467 80.179C140.467 83.7411 143.355 86.6292 146.918 86.6292H158C157.396 94.9671 155.46 103.167 152.252 110.913C148.321 120.401 142.561 129.023 135.299 136.284L108.724 109.71C112.496 105.938 115.489 101.459 117.531 96.5305C119.572 91.6022 120.623 86.32 120.623 80.9856C120.623 75.651 119.572 70.3682 117.531 65.4397C115.489 60.5111 112.496 56.0332 108.724 52.261L135.299 25.6858Z" fill="#E1E1E1"/>
<path d="M135.299 25.6858L136.714 24.2716L135.299 22.8574L133.885 24.2716L135.299 25.6858ZM152.252 51.0579L154.099 50.2925L154.099 50.2925L152.252 51.0579ZM157.866 73.7288V75.7288H160.061L159.857 73.5432L157.866 73.7288ZM140.467 80.179L138.467 80.1789V80.179H140.467ZM158 86.6292L159.994 86.7735L160.15 84.6292H158V86.6292ZM152.252 110.913L154.099 111.679L154.099 111.679L152.252 110.913ZM135.299 136.284L133.885 137.699L135.299 139.113L136.714 137.699L135.299 136.284ZM108.724 109.71L107.31 108.296L105.896 109.71L107.31 111.124L108.724 109.71ZM117.531 96.5305L119.379 97.2959L119.379 97.2959L117.531 96.5305ZM120.623 80.9856L122.623 80.9856L122.623 80.9856L120.623 80.9856ZM117.531 65.4397L119.379 64.6743L119.379 64.6743L117.531 65.4397ZM108.724 52.261L107.31 50.8468L105.896 52.261L107.31 53.6752L108.724 52.261ZM135.299 25.6858L133.885 27.1C140.961 34.1762 146.574 42.5776 150.404 51.8232L152.252 51.0579L154.099 50.2925C150.069 40.5617 144.161 31.7193 136.714 24.2716L135.299 25.6858ZM152.252 51.0579L150.404 51.8232C153.328 58.8836 155.168 66.3313 155.874 73.9143L157.866 73.7288L159.857 73.5432C159.113 65.5626 157.178 57.7239 154.099 50.2925L152.252 51.0579ZM157.866 73.7288V71.7288H146.918V73.7288V75.7288H157.866V73.7288ZM146.918 73.7288V71.7288C142.251 71.7288 138.467 75.5123 138.467 80.1789L140.467 80.179L142.467 80.179C142.467 77.7214 144.46 75.7288 146.918 75.7288V73.7288ZM140.467 80.179H138.467C138.467 84.8457 142.251 88.6292 146.918 88.6292V86.6292V84.6292C144.46 84.6292 142.467 82.6366 142.467 80.179H140.467ZM146.918 86.6292V88.6292H158V86.6292V84.6292H146.918V86.6292ZM158 86.6292L156.005 86.4848C155.417 94.6097 153.53 102.6 150.404 110.148L152.252 110.913L154.099 111.679C157.39 103.735 159.376 95.3245 159.994 86.7735L158 86.6292ZM152.252 110.913L150.404 110.148C146.574 119.393 140.961 127.794 133.885 134.87L135.299 136.284L136.714 137.699C144.161 130.251 150.069 121.409 154.099 111.679L152.252 110.913ZM135.299 136.284L136.714 134.87L110.138 108.296L108.724 109.71L107.31 111.124L133.885 137.699L135.299 136.284ZM108.724 109.71L110.138 111.124C114.096 107.167 117.237 102.467 119.379 97.2959L117.531 96.5305L115.683 95.7652C113.742 100.451 110.897 104.71 107.31 108.296L108.724 109.71ZM117.531 96.5305L119.379 97.2959C121.52 92.1248 122.623 86.5825 122.623 80.9856L120.623 80.9856L118.623 80.9856C118.623 86.0574 117.624 91.0795 115.683 95.7652L117.531 96.5305ZM120.623 80.9856L122.623 80.9856C122.623 75.3885 121.521 69.8456 119.379 64.6743L117.531 65.4397L115.683 66.2051C117.624 70.8908 118.623 75.9136 118.623 80.9856L120.623 80.9856ZM117.531 65.4397L119.379 64.6743C117.237 59.5029 114.096 54.8045 110.138 50.8468L108.724 52.261L107.31 53.6752C110.897 57.2618 113.742 61.5193 115.683 66.2051L117.531 65.4397ZM108.724 52.261L110.138 53.6752L136.714 27.1L135.299 25.6858L133.885 24.2716L107.31 50.8468L108.724 52.261Z" fill="#F5F5F5" mask="url(#path-3-outside-2_50_36)"/>
<path d="M40.2413 184V158.545H46.3937V179.004H56.9831V184H40.2413ZM83.2021 171.273C83.2021 174.073 82.6635 176.447 81.5863 178.395C80.5091 180.342 79.0508 181.821 77.2113 182.832C75.3801 183.843 73.3252 184.348 71.0465 184.348C68.7596 184.348 66.7005 183.838 64.8693 182.819C63.0381 181.8 61.5839 180.321 60.5068 178.382C59.4379 176.435 58.9034 174.065 58.9034 171.273C58.9034 168.472 59.4379 166.098 60.5068 164.151C61.5839 162.204 63.0381 160.725 64.8693 159.714C66.7005 158.703 68.7596 158.197 71.0465 158.197C73.3252 158.197 75.3801 158.703 77.2113 159.714C79.0508 160.725 80.5091 162.204 81.5863 164.151C82.6635 166.098 83.2021 168.472 83.2021 171.273ZM76.913 171.273C76.913 169.616 76.6769 168.215 76.2046 167.072C75.7405 165.928 75.0694 165.062 74.1911 164.474C73.321 163.886 72.2729 163.592 71.0465 163.592C69.8285 163.592 68.7803 163.886 67.902 164.474C67.0237 165.062 66.3484 165.928 65.8761 167.072C65.4121 168.215 65.1801 169.616 65.1801 171.273C65.1801 172.93 65.4121 174.33 65.8761 175.474C66.3484 176.617 67.0237 177.483 67.902 178.071C68.7803 178.66 69.8285 178.954 71.0465 178.954C72.2729 178.954 73.321 178.66 74.1911 178.071C75.0694 177.483 75.7405 176.617 76.2046 175.474C76.6769 174.33 76.913 172.93 76.913 171.273ZM91.632 184L84.2244 158.545H91.023L94.8636 175.225H95.0749L99.4623 158.545H105.006L109.393 175.262H109.604L113.457 158.545H120.244L112.848 184H106.92L102.333 168.563H102.135L97.5482 184H91.632Z" fill="black"/>
<mask id="path-6-outside-3_50_36" maskUnits="userSpaceOnUse" x="21.5746" y="0" width="117" height="56" fill="black">
<rect fill="white" x="21.5746" width="117" height="56"/>
<path d="M85.722 3C93.9898 3.62001 102.119 5.55113 109.802 8.7334C119.29 12.6635 127.911 18.4238 135.173 25.6855L108.599 52.2607C104.827 48.4886 100.348 45.4956 95.4193 43.4541C90.491 41.4128 85.2087 40.3624 79.8744 40.3623C74.5399 40.3623 69.257 41.4127 64.3285 43.4541C59.4 45.4956 54.9219 48.4886 51.1498 52.2607L24.5746 25.6855C31.8365 18.4236 40.4585 12.6635 49.9467 8.7334C57.2561 5.70576 64.9701 3.81063 72.8226 3.09961V14.0674C72.8226 17.6295 75.7107 20.5176 79.2728 20.5176C82.8348 20.5174 85.722 17.6294 85.722 14.0674V3Z"/>
</mask>
<path d="M85.722 3C93.9898 3.62001 102.119 5.55113 109.802 8.7334C119.29 12.6635 127.911 18.4238 135.173 25.6855L108.599 52.2607C104.827 48.4886 100.348 45.4956 95.4193 43.4541C90.491 41.4128 85.2087 40.3624 79.8744 40.3623C74.5399 40.3623 69.257 41.4127 64.3285 43.4541C59.4 45.4956 54.9219 48.4886 51.1498 52.2607L24.5746 25.6855C31.8365 18.4236 40.4585 12.6635 49.9467 8.7334C57.2561 5.70576 64.9701 3.81063 72.8226 3.09961V14.0674C72.8226 17.6295 75.7107 20.5176 79.2728 20.5176C82.8348 20.5174 85.722 17.6294 85.722 14.0674V3Z" fill="#E1E1E1"/>
<path d="M85.722 3L85.8716 1.0056L83.722 0.844402V3H85.722ZM109.802 8.7334L110.568 6.88564L110.567 6.88564L109.802 8.7334ZM135.173 25.6855L136.587 27.0997L138.002 25.6855L136.587 24.2713L135.173 25.6855ZM108.599 52.2607L107.185 53.675L108.599 55.0892L110.013 53.6749L108.599 52.2607ZM95.4193 43.4541L96.1847 41.6063L96.1847 41.6063L95.4193 43.4541ZM79.8744 40.3623L79.8744 38.3623L79.8744 38.3623L79.8744 40.3623ZM64.3285 43.4541L63.5631 41.6063L63.5631 41.6063L64.3285 43.4541ZM51.1498 52.2607L49.7356 53.675L51.1498 55.0892L52.564 53.675L51.1498 52.2607ZM24.5746 25.6855L23.1604 24.2713L21.7462 25.6855L23.1604 27.0998L24.5746 25.6855ZM49.9467 8.7334L49.1813 6.88564L49.1813 6.88564L49.9467 8.7334ZM72.8226 3.09961H74.8226V0.910336L72.6423 1.10776L72.8226 3.09961ZM72.8226 14.0674L74.8226 14.0674V14.0674H72.8226ZM79.2728 20.5176L79.2728 22.5176L79.2729 22.5176L79.2728 20.5176ZM85.722 14.0674L87.722 14.0674V14.0674H85.722ZM85.722 3L85.5725 4.9944C93.6289 5.59856 101.551 7.48031 109.037 10.5812L109.802 8.7334L110.567 6.88564C102.688 3.62194 94.3507 1.64145 85.8716 1.0056L85.722 3ZM109.802 8.7334L109.037 10.5812C118.282 14.4108 126.683 20.0237 133.759 27.0998L135.173 25.6855L136.587 24.2713C129.14 16.8238 120.298 10.9162 110.568 6.88564L109.802 8.7334ZM135.173 25.6855L133.759 24.2714L107.185 50.8466L108.599 52.2607L110.013 53.6749L136.587 27.0997L135.173 25.6855ZM108.599 52.2607L110.013 50.8465C106.055 46.8887 101.356 43.7483 96.1847 41.6063L95.4193 43.4541L94.6539 45.3019C99.3398 47.2428 103.598 50.0885 107.185 53.675L108.599 52.2607ZM95.4193 43.4541L96.1847 41.6063C91.0136 39.4645 85.4713 38.3624 79.8744 38.3623L79.8744 40.3623L79.8744 42.3623C84.9461 42.3624 89.9684 43.3611 94.654 45.3019L95.4193 43.4541ZM79.8744 40.3623L79.8744 38.3623C74.2773 38.3623 68.7344 39.4644 63.5631 41.6063L64.3285 43.4541L65.0938 45.3019C69.7796 43.361 74.8024 42.3623 79.8744 42.3623L79.8744 40.3623ZM64.3285 43.4541L63.5631 41.6063C58.3918 43.7484 53.6933 46.8888 49.7356 50.8465L51.1498 52.2607L52.564 53.675C56.1506 50.0884 60.4082 47.2427 65.0939 45.3019L64.3285 43.4541ZM51.1498 52.2607L52.564 50.8465L25.9888 24.2713L24.5746 25.6855L23.1604 27.0998L49.7356 53.675L51.1498 52.2607ZM24.5746 25.6855L25.9888 27.0998C33.065 20.0236 41.4664 14.4108 50.712 10.5812L49.9467 8.7334L49.1813 6.88564C39.4505 10.9162 30.6081 16.8236 23.1604 24.2713L24.5746 25.6855ZM49.9467 8.7334L50.712 10.5812C57.8344 7.63099 65.3511 5.7843 73.003 5.09146L72.8226 3.09961L72.6423 1.10776C64.589 1.83695 56.6778 3.78053 49.1813 6.88564L49.9467 8.7334ZM72.8226 3.09961H70.8226V14.0674H72.8226H74.8226V3.09961H72.8226ZM72.8226 14.0674L70.8226 14.0674C70.8226 18.7341 74.6061 22.5176 79.2728 22.5176L79.2728 20.5176L79.2728 18.5176C76.8152 18.5176 74.8226 16.525 74.8226 14.0674L72.8226 14.0674ZM79.2728 20.5176L79.2729 22.5176C83.9397 22.5173 87.722 18.7337 87.722 14.0674L85.722 14.0674L83.722 14.0674C83.722 16.5252 81.73 18.5175 79.2727 18.5176L79.2728 20.5176ZM85.722 14.0674H87.722V3H85.722H83.722V14.0674H85.722Z" fill="#F5F5F5" mask="url(#path-6-outside-3_50_36)"/>
<path d="M64.625 75.9482C66.1001 68.5639 72.6183 63 80.4365 63C89.3418 63.0001 96.5613 70.2188 96.5615 79.124C96.5615 88.0294 89.3419 95.2489 80.4365 95.249C73.2143 95.249 67.1008 90.501 65.0479 83.9561L24 79.9307L64.625 75.9482Z" fill="black"/>
</svg>
