<svg width="162" height="192" viewBox="0 0 162 192" fill="none" xmlns="http://www.w3.org/2000/svg">
<mask id="path-1-outside-1_50_19" maskUnits="userSpaceOnUse" x="0" y="22.6858" width="56" height="117" fill="black">
<rect fill="white" y="22.6858" width="56" height="117"/>
<path d="M52.2754 52.261C48.5033 56.0331 45.5112 60.5112 43.4697 65.4397C41.4282 70.3683 40.377 75.6509 40.377 80.9856C40.377 86.32 41.4284 91.6021 43.4697 96.5305C45.5112 101.459 48.5032 105.938 52.2754 109.71L25.7012 136.284C18.4393 129.023 12.6782 120.401 8.74805 110.913C5.5396 103.167 3.60331 94.9671 3 86.6292H15.6953C19.2574 86.629 22.1445 83.741 22.1445 80.179C22.1445 76.6169 19.2573 73.7289 15.6953 73.7288H3.13379C3.85899 65.947 5.74675 58.3037 8.74805 51.0579C12.6782 41.5696 18.4392 32.9478 25.7012 25.6858L52.2754 52.261Z"/>
</mask>
<path d="M52.2754 52.261C48.5033 56.0331 45.5112 60.5112 43.4697 65.4397C41.4282 70.3683 40.377 75.6509 40.377 80.9856C40.377 86.32 41.4284 91.6021 43.4697 96.5305C45.5112 101.459 48.5032 105.938 52.2754 109.71L25.7012 136.284C18.4393 129.023 12.6782 120.401 8.74805 110.913C5.5396 103.167 3.60331 94.9671 3 86.6292H15.6953C19.2574 86.629 22.1445 83.741 22.1445 80.179C22.1445 76.6169 19.2573 73.7289 15.6953 73.7288H3.13379C3.85899 65.947 5.74675 58.3037 8.74805 51.0579C12.6782 41.5696 18.4392 32.9478 25.7012 25.6858L52.2754 52.261Z" fill="#E1E1E1"/>
<path d="M52.2754 52.261L53.6896 53.6752L55.1038 52.261L53.6896 50.8468L52.2754 52.261ZM43.4697 65.4397L41.622 64.6743L41.622 64.6743L43.4697 65.4397ZM40.377 80.9856L38.377 80.9856L38.377 80.9856L40.377 80.9856ZM43.4697 96.5305L41.622 97.2959L41.622 97.2959L43.4697 96.5305ZM52.2754 109.71L53.6896 111.124L55.1038 109.71L53.6896 108.296L52.2754 109.71ZM25.7012 136.284L24.287 137.699L25.7012 139.113L27.1154 137.699L25.7012 136.284ZM8.74805 110.913L6.90029 111.679L6.90029 111.679L8.74805 110.913ZM3 86.6292V84.6292H0.850057L1.00522 86.7735L3 86.6292ZM15.6953 86.6292L15.6953 88.6292L15.6954 88.6292L15.6953 86.6292ZM22.1445 80.179L24.1445 80.179L24.1445 80.1789L22.1445 80.179ZM15.6953 73.7288L15.6954 71.7288H15.6953V73.7288ZM3.13379 73.7288L1.14242 73.5432L0.938739 75.7288H3.13379V73.7288ZM8.74805 51.0579L6.90029 50.2925L6.90028 50.2925L8.74805 51.0579ZM25.7012 25.6858L27.1154 24.2716L25.7012 22.8573L24.287 24.2716L25.7012 25.6858ZM52.2754 52.261L50.8612 50.8468C46.9034 54.8046 43.7639 59.5032 41.622 64.6743L43.4697 65.4397L45.3175 66.2051C47.2584 61.5192 50.1032 57.2616 53.6896 53.6752L52.2754 52.261ZM43.4697 65.4397L41.622 64.6743C39.48 69.8454 38.377 75.3882 38.377 80.9856L40.377 80.9856L42.377 80.9856C42.377 75.9137 43.3765 70.8911 45.3175 66.2051L43.4697 65.4397ZM40.377 80.9856L38.377 80.9856C38.377 86.5829 39.4802 92.125 41.622 97.2959L43.4697 96.5305L45.3175 95.7652C43.3766 91.0792 42.377 86.0572 42.377 80.9856L40.377 80.9856ZM43.4697 96.5305L41.622 97.2959C43.7639 102.467 46.9032 107.166 50.8612 111.124L52.2754 109.71L53.6896 108.296C50.1033 104.71 47.2585 100.451 45.3175 95.7652L43.4697 96.5305ZM52.2754 109.71L50.8612 108.296L24.287 134.87L25.7012 136.284L27.1154 137.699L53.6896 111.124L52.2754 109.71ZM25.7012 136.284L27.1154 134.87C20.0391 127.794 14.4254 119.393 10.5958 110.148L8.74805 110.913L6.90029 111.679C10.931 121.41 16.8394 130.251 24.287 137.699L25.7012 136.284ZM8.74805 110.913L10.5958 110.148C7.46948 102.6 5.58268 94.6097 4.99478 86.4848L3 86.6292L1.00522 86.7735C1.62394 95.3245 3.60972 103.735 6.90029 111.679L8.74805 110.913ZM3 86.6292V88.6292H15.6953V86.6292V84.6292H3V86.6292ZM15.6953 86.6292L15.6954 88.6292C20.3623 88.629 24.1445 84.8453 24.1445 80.179H22.1445H20.1445C20.1445 82.6368 18.1525 84.629 15.6952 84.6292L15.6953 86.6292ZM22.1445 80.179L24.1445 80.1789C24.1445 75.5127 20.3622 71.729 15.6954 71.7288L15.6953 73.7288L15.6952 75.7288C18.1524 75.7289 20.1445 77.7212 20.1445 80.179L22.1445 80.179ZM15.6953 73.7288V71.7288H3.13379V73.7288V75.7288H15.6953V73.7288ZM3.13379 73.7288L5.12516 73.9143C5.83184 66.3314 7.67135 58.8836 10.5958 51.8232L8.74805 51.0579L6.90028 50.2925C3.82215 57.7239 1.88615 65.5626 1.14242 73.5432L3.13379 73.7288ZM8.74805 51.0579L10.5958 51.8232C14.4255 42.5777 20.0391 34.1763 27.1154 27.1L25.7012 25.6858L24.287 24.2716C16.8393 31.7193 10.931 40.5616 6.90029 50.2925L8.74805 51.0579ZM25.7012 25.6858L24.2869 27.1L50.8612 53.6752L52.2754 52.261L53.6896 50.8468L27.1154 24.2716L25.7012 25.6858Z" fill="#F5F5F5" mask="url(#path-1-outside-1_50_19)"/>
<mask id="path-3-outside-2_50_19" maskUnits="userSpaceOnUse" x="106.724" y="22.6858" width="55" height="117" fill="black">
<rect fill="white" x="106.724" y="22.6858" width="55" height="117"/>
<path d="M136.299 25.6858C143.561 32.9478 149.321 41.5696 153.252 51.0579C156.253 58.3037 158.141 65.9469 158.866 73.7288H147.918C144.355 73.7288 141.467 76.6168 141.467 80.179C141.467 83.7411 144.355 86.6292 147.918 86.6292H159C158.396 94.9671 156.46 103.167 153.252 110.913C149.321 120.401 143.561 129.023 136.299 136.284L109.724 109.71C113.496 105.938 116.489 101.459 118.531 96.5305C120.572 91.6022 121.623 86.32 121.623 80.9856C121.623 75.651 120.572 70.3682 118.531 65.4397C116.489 60.5111 113.496 56.0332 109.724 52.261L136.299 25.6858Z"/>
</mask>
<path d="M136.299 25.6858C143.561 32.9478 149.321 41.5696 153.252 51.0579C156.253 58.3037 158.141 65.9469 158.866 73.7288H147.918C144.355 73.7288 141.467 76.6168 141.467 80.179C141.467 83.7411 144.355 86.6292 147.918 86.6292H159C158.396 94.9671 156.46 103.167 153.252 110.913C149.321 120.401 143.561 129.023 136.299 136.284L109.724 109.71C113.496 105.938 116.489 101.459 118.531 96.5305C120.572 91.6022 121.623 86.32 121.623 80.9856C121.623 75.651 120.572 70.3682 118.531 65.4397C116.489 60.5111 113.496 56.0332 109.724 52.261L136.299 25.6858Z" fill="#E1E1E1"/>
<path d="M136.299 25.6858L137.714 24.2716L136.299 22.8574L134.885 24.2716L136.299 25.6858ZM153.252 51.0579L155.099 50.2925L155.099 50.2925L153.252 51.0579ZM158.866 73.7288V75.7288H161.061L160.857 73.5432L158.866 73.7288ZM141.467 80.179L139.467 80.1789V80.179H141.467ZM159 86.6292L160.994 86.7735L161.15 84.6292H159V86.6292ZM153.252 110.913L155.099 111.679L155.099 111.679L153.252 110.913ZM136.299 136.284L134.885 137.699L136.299 139.113L137.714 137.699L136.299 136.284ZM109.724 109.71L108.31 108.296L106.896 109.71L108.31 111.124L109.724 109.71ZM118.531 96.5305L120.379 97.2959L120.379 97.2959L118.531 96.5305ZM121.623 80.9856L123.623 80.9856L123.623 80.9856L121.623 80.9856ZM118.531 65.4397L120.379 64.6743L120.379 64.6743L118.531 65.4397ZM109.724 52.261L108.31 50.8468L106.896 52.261L108.31 53.6752L109.724 52.261ZM136.299 25.6858L134.885 27.1C141.961 34.1762 147.574 42.5776 151.404 51.8232L153.252 51.0579L155.099 50.2925C151.069 40.5617 145.161 31.7193 137.714 24.2716L136.299 25.6858ZM153.252 51.0579L151.404 51.8232C154.328 58.8836 156.168 66.3313 156.874 73.9143L158.866 73.7288L160.857 73.5432C160.113 65.5626 158.178 57.7239 155.099 50.2925L153.252 51.0579ZM158.866 73.7288V71.7288H147.918V73.7288V75.7288H158.866V73.7288ZM147.918 73.7288V71.7288C143.251 71.7288 139.467 75.5123 139.467 80.1789L141.467 80.179L143.467 80.179C143.467 77.7214 145.46 75.7288 147.918 75.7288V73.7288ZM141.467 80.179H139.467C139.467 84.8457 143.251 88.6292 147.918 88.6292V86.6292V84.6292C145.46 84.6292 143.467 82.6366 143.467 80.179H141.467ZM147.918 86.6292V88.6292H159V86.6292V84.6292H147.918V86.6292ZM159 86.6292L157.005 86.4848C156.417 94.6097 154.53 102.6 151.404 110.148L153.252 110.913L155.099 111.679C158.39 103.735 160.376 95.3245 160.994 86.7735L159 86.6292ZM153.252 110.913L151.404 110.148C147.574 119.393 141.961 127.794 134.885 134.87L136.299 136.284L137.714 137.699C145.161 130.251 151.069 121.409 155.099 111.679L153.252 110.913ZM136.299 136.284L137.714 134.87L111.138 108.296L109.724 109.71L108.31 111.124L134.885 137.699L136.299 136.284ZM109.724 109.71L111.138 111.124C115.096 107.167 118.237 102.467 120.379 97.2959L118.531 96.5305L116.683 95.7652C114.742 100.451 111.897 104.71 108.31 108.296L109.724 109.71ZM118.531 96.5305L120.379 97.2959C122.52 92.1248 123.623 86.5825 123.623 80.9856L121.623 80.9856L119.623 80.9856C119.623 86.0574 118.624 91.0795 116.683 95.7652L118.531 96.5305ZM121.623 80.9856L123.623 80.9856C123.623 75.3885 122.521 69.8456 120.379 64.6743L118.531 65.4397L116.683 66.2051C118.624 70.8908 119.623 75.9136 119.623 80.9856L121.623 80.9856ZM118.531 65.4397L120.379 64.6743C118.237 59.5029 115.096 54.8045 111.138 50.8468L109.724 52.261L108.31 53.6752C111.897 57.2618 114.742 61.5193 116.683 66.2051L118.531 65.4397ZM109.724 52.261L111.138 53.6752L137.714 27.1L136.299 25.6858L134.885 24.2716L108.31 50.8468L109.724 52.261Z" fill="#F5F5F5" mask="url(#path-3-outside-2_50_19)"/>
<path d="M8.42442 158.545H16.0434L22.5064 174.305H22.8047L29.2678 158.545H36.8868V184H30.896V168.364H30.6847L24.5697 183.838H20.7415L14.6265 168.277H14.4152V184H8.42442V158.545ZM40.7242 184V158.545H58.4728V163.542H46.8766V168.762H57.5655V173.771H46.8766V179.004H58.4728V184H40.7242ZM71.7345 184H62.3258V158.545H71.7221C74.3156 158.545 76.5487 159.055 78.4213 160.074C80.3022 161.085 81.7523 162.543 82.7715 164.449C83.7906 166.347 84.3002 168.617 84.3002 171.26C84.3002 173.912 83.7906 176.19 82.7715 178.096C81.7606 180.002 80.3147 181.464 78.4337 182.484C76.5528 183.495 74.3197 184 71.7345 184ZM68.4781 178.755H71.4984C72.9236 178.755 74.1292 178.515 75.1152 178.034C76.1095 177.545 76.8594 176.754 77.3648 175.66C77.8786 174.558 78.1354 173.092 78.1354 171.26C78.1354 169.429 77.8786 167.971 77.3648 166.885C76.8511 165.792 76.0929 165.004 75.0903 164.524C74.096 164.035 72.8697 163.79 71.4114 163.79H68.4781V178.755ZM94.0445 158.545V184H87.8922V158.545H94.0445ZM113.306 158.545H119.446V174.964C119.446 176.862 118.995 178.515 118.091 179.923C117.188 181.324 115.929 182.409 114.313 183.18C112.697 183.942 110.821 184.323 108.683 184.323C106.52 184.323 104.631 183.942 103.015 183.18C101.399 182.409 100.144 181.324 99.2492 179.923C98.3543 178.515 97.9068 176.862 97.9068 174.964V158.545H104.059V174.43C104.059 175.308 104.25 176.091 104.631 176.779C105.02 177.467 105.563 178.005 106.259 178.395C106.955 178.784 107.763 178.979 108.683 178.979C109.603 178.979 110.406 178.784 111.094 178.395C111.79 178.005 112.333 177.467 112.722 176.779C113.112 176.091 113.306 175.308 113.306 174.43V158.545ZM123.302 158.545H130.921L137.384 174.305H137.683L144.146 158.545H151.765V184H145.774V168.364H145.563L139.448 183.838H135.619L129.504 168.277H129.293V184H123.302V158.545Z" fill="black"/>
<mask id="path-6-outside-3_50_19" maskUnits="userSpaceOnUse" x="22.5746" y="0" width="117" height="56" fill="black">
<rect fill="white" x="22.5746" width="117" height="56"/>
<path d="M86.722 3C94.9898 3.62001 103.119 5.55113 110.802 8.7334C120.29 12.6635 128.911 18.4238 136.173 25.6855L109.599 52.2607C105.827 48.4886 101.348 45.4956 96.4193 43.4541C91.491 41.4128 86.2087 40.3624 80.8744 40.3623C75.5399 40.3623 70.257 41.4127 65.3285 43.4541C60.4 45.4956 55.9219 48.4886 52.1498 52.2607L25.5746 25.6855C32.8365 18.4236 41.4585 12.6635 50.9467 8.7334C58.2561 5.70576 65.9701 3.81063 73.8226 3.09961V14.0674C73.8226 17.6295 76.7107 20.5176 80.2728 20.5176C83.8348 20.5174 86.722 17.6294 86.722 14.0674V3Z"/>
</mask>
<path d="M86.722 3C94.9898 3.62001 103.119 5.55113 110.802 8.7334C120.29 12.6635 128.911 18.4238 136.173 25.6855L109.599 52.2607C105.827 48.4886 101.348 45.4956 96.4193 43.4541C91.491 41.4128 86.2087 40.3624 80.8744 40.3623C75.5399 40.3623 70.257 41.4127 65.3285 43.4541C60.4 45.4956 55.9219 48.4886 52.1498 52.2607L25.5746 25.6855C32.8365 18.4236 41.4585 12.6635 50.9467 8.7334C58.2561 5.70576 65.9701 3.81063 73.8226 3.09961V14.0674C73.8226 17.6295 76.7107 20.5176 80.2728 20.5176C83.8348 20.5174 86.722 17.6294 86.722 14.0674V3Z" fill="#348BD9"/>
<path d="M86.722 3L86.8716 1.0056L84.722 0.844402V3H86.722ZM110.802 8.7334L111.568 6.88564L111.567 6.88564L110.802 8.7334ZM136.173 25.6855L137.587 27.0997L139.002 25.6855L137.587 24.2713L136.173 25.6855ZM109.599 52.2607L108.185 53.675L109.599 55.0892L111.013 53.6749L109.599 52.2607ZM96.4193 43.4541L97.1847 41.6063L97.1847 41.6063L96.4193 43.4541ZM80.8744 40.3623L80.8744 38.3623L80.8744 38.3623L80.8744 40.3623ZM65.3285 43.4541L64.5631 41.6063L64.5631 41.6063L65.3285 43.4541ZM52.1498 52.2607L50.7356 53.675L52.1498 55.0892L53.564 53.675L52.1498 52.2607ZM25.5746 25.6855L24.1604 24.2713L22.7462 25.6855L24.1604 27.0998L25.5746 25.6855ZM50.9467 8.7334L50.1813 6.88564L50.1813 6.88564L50.9467 8.7334ZM73.8226 3.09961H75.8226V0.910336L73.6423 1.10776L73.8226 3.09961ZM73.8226 14.0674L75.8226 14.0674V14.0674H73.8226ZM80.2728 20.5176L80.2728 22.5176L80.2729 22.5176L80.2728 20.5176ZM86.722 14.0674L88.722 14.0674V14.0674H86.722ZM86.722 3L86.5725 4.9944C94.6289 5.59856 102.551 7.48031 110.037 10.5812L110.802 8.7334L111.567 6.88564C103.688 3.62194 95.3507 1.64145 86.8716 1.0056L86.722 3ZM110.802 8.7334L110.037 10.5812C119.282 14.4108 127.683 20.0237 134.759 27.0998L136.173 25.6855L137.587 24.2713C130.14 16.8238 121.298 10.9162 111.568 6.88564L110.802 8.7334ZM136.173 25.6855L134.759 24.2714L108.185 50.8466L109.599 52.2607L111.013 53.6749L137.587 27.0997L136.173 25.6855ZM109.599 52.2607L111.013 50.8465C107.055 46.8887 102.356 43.7483 97.1847 41.6063L96.4193 43.4541L95.6539 45.3019C100.34 47.2428 104.598 50.0885 108.185 53.675L109.599 52.2607ZM96.4193 43.4541L97.1847 41.6063C92.0136 39.4645 86.4713 38.3624 80.8744 38.3623L80.8744 40.3623L80.8744 42.3623C85.9461 42.3624 90.9684 43.3611 95.654 45.3019L96.4193 43.4541ZM80.8744 40.3623L80.8744 38.3623C75.2773 38.3623 69.7344 39.4644 64.5631 41.6063L65.3285 43.4541L66.0938 45.3019C70.7796 43.361 75.8024 42.3623 80.8744 42.3623L80.8744 40.3623ZM65.3285 43.4541L64.5631 41.6063C59.3918 43.7484 54.6933 46.8888 50.7356 50.8465L52.1498 52.2607L53.564 53.675C57.1506 50.0884 61.4082 47.2427 66.0939 45.3019L65.3285 43.4541ZM52.1498 52.2607L53.564 50.8465L26.9888 24.2713L25.5746 25.6855L24.1604 27.0998L50.7356 53.675L52.1498 52.2607ZM25.5746 25.6855L26.9888 27.0998C34.065 20.0236 42.4664 14.4108 51.712 10.5812L50.9467 8.7334L50.1813 6.88564C40.4505 10.9162 31.6081 16.8236 24.1604 24.2713L25.5746 25.6855ZM50.9467 8.7334L51.712 10.5812C58.8344 7.63099 66.3511 5.7843 74.003 5.09146L73.8226 3.09961L73.6423 1.10776C65.589 1.83695 57.6778 3.78053 50.1813 6.88564L50.9467 8.7334ZM73.8226 3.09961H71.8226V14.0674H73.8226H75.8226V3.09961H73.8226ZM73.8226 14.0674L71.8226 14.0674C71.8226 18.7341 75.6061 22.5176 80.2728 22.5176L80.2728 20.5176L80.2728 18.5176C77.8152 18.5176 75.8226 16.525 75.8226 14.0674L73.8226 14.0674ZM80.2728 20.5176L80.2729 22.5176C84.9397 22.5173 88.722 18.7337 88.722 14.0674L86.722 14.0674L84.722 14.0674C84.722 16.5252 82.73 18.5175 80.2727 18.5176L80.2728 20.5176ZM86.722 14.0674H88.722V3H86.722H84.722V14.0674H86.722Z" fill="#F5F5F5" mask="url(#path-6-outside-3_50_19)"/>
<path d="M84.7074 80.7616C91.5206 82.6464 96.5228 88.8906 96.5228 96.3036C96.5228 105.209 89.3041 112.428 80.3988 112.429C71.4934 112.429 64.2738 105.209 64.2738 96.3036C64.2738 89.5105 68.4748 83.699 74.4203 81.3241L79.5922 28.58L84.7074 80.7616Z" fill="black"/>
</svg>
