<svg width="809" height="253" viewBox="0 0 809 253" fill="none" xmlns="http://www.w3.org/2000/svg">
<rect x="6" y="6" width="797" height="241" fill="#F2F9FF" stroke="#348BD9" stroke-width="12"/>
<path d="M650.275 87.2609C646.503 91.0331 643.511 95.5111 641.47 100.44C639.428 105.368 638.377 110.651 638.377 115.986C638.377 121.32 639.428 126.602 641.47 131.53C643.511 136.459 646.503 140.938 650.275 144.71L623.701 171.284C616.439 164.022 610.678 155.401 606.748 145.913C603.54 138.167 601.603 129.967 601 121.629H613.695C617.257 121.629 620.145 118.741 620.145 115.179C620.144 111.617 617.257 108.729 613.695 108.729H601.134C601.859 100.947 603.747 93.3037 606.748 86.0578C610.678 76.5696 616.439 67.9477 623.701 60.6857L650.275 87.2609Z" fill="#73CEEA"/>
<path d="M734.3 60.6857C741.562 67.9477 747.322 76.5696 751.252 86.0578C754.253 93.3037 756.141 100.947 756.866 108.729H745.918C742.356 108.729 739.468 111.617 739.468 115.179C739.468 118.741 742.356 121.629 745.918 121.629H757C756.396 129.967 754.46 138.167 751.252 145.913C747.322 155.401 741.561 164.023 734.3 171.284L707.724 144.71C711.497 140.938 714.49 136.459 716.531 131.53C718.572 126.602 719.623 121.32 719.623 115.986C719.623 110.651 718.572 105.368 716.531 100.44C714.49 95.5111 711.497 91.0331 707.724 87.2609L734.3 60.6857Z" fill="#264175"/>
<path d="M622.054 188.636H627.364L632.972 202.318H633.211L638.819 188.636H644.128V209H639.952V195.746H639.783L634.513 208.901H631.669L626.399 195.696H626.23V209H622.054V188.636ZM647.675 209V188.636H661.397V192.186H651.981V197.038H660.691V200.588H651.981V205.45H661.437V209H647.675ZM672.039 209H664.82V188.636H672.098C674.147 188.636 675.91 189.044 677.388 189.859C678.866 190.668 680.003 191.831 680.799 193.349C681.601 194.867 682.002 196.684 682.002 198.798C682.002 200.92 681.601 202.742 680.799 204.267C680.003 205.792 678.86 206.962 677.368 207.777C675.883 208.592 674.107 209 672.039 209ZM669.125 205.311H671.86C673.132 205.311 674.203 205.086 675.071 204.635C675.946 204.178 676.603 203.472 677.04 202.517C677.484 201.556 677.706 200.316 677.706 198.798C677.706 197.294 677.484 196.064 677.04 195.109C676.603 194.155 675.95 193.452 675.081 193.001C674.213 192.551 673.142 192.325 671.87 192.325H669.125V205.311ZM689.496 188.636V209H685.191V188.636H689.496ZM705.617 188.636H709.922V201.861C709.922 203.346 709.568 204.645 708.858 205.759C708.156 206.872 707.171 207.741 705.905 208.364C704.639 208.98 703.164 209.288 701.48 209.288C699.79 209.288 698.312 208.98 697.046 208.364C695.78 207.741 694.795 206.872 694.093 205.759C693.39 204.645 693.039 203.346 693.039 201.861V188.636H697.344V201.493C697.344 202.268 697.513 202.958 697.851 203.561C698.196 204.164 698.68 204.638 699.303 204.983C699.926 205.328 700.652 205.5 701.48 205.5C702.316 205.5 703.042 205.328 703.658 204.983C704.281 204.638 704.762 204.164 705.1 203.561C705.444 202.958 705.617 202.268 705.617 201.493V188.636ZM713.464 188.636H718.774L724.382 202.318H724.621L730.229 188.636H735.538V209H731.362V195.746H731.193L725.923 208.901H723.08L717.81 195.696H717.641V209H713.464V188.636Z" fill="black"/>
<path d="M684.722 38C692.99 38.62 701.119 40.5511 708.802 43.7334C718.29 47.6635 726.911 53.4238 734.173 60.6855L707.599 87.2607C703.827 83.4886 699.348 80.4956 694.419 78.4541C689.491 76.4128 684.209 75.3624 678.874 75.3623C673.54 75.3623 668.257 76.4127 663.328 78.4541C658.4 80.4956 653.922 83.4886 650.15 87.2607L623.574 60.6855C630.836 53.4236 639.458 47.6635 648.947 43.7334C656.256 40.7058 663.97 38.8106 671.823 38.0996V49.0674C671.823 52.6295 674.711 55.5176 678.273 55.5176C681.835 55.5174 684.722 52.6294 684.722 49.0674V38Z" fill="#348BD9"/>
<path d="M682.707 115.762C689.521 117.646 694.523 123.891 694.523 131.304C694.523 140.209 687.304 147.428 678.399 147.429C669.493 147.429 662.274 140.209 662.274 131.304C662.274 124.511 666.475 118.699 672.42 116.324L677.592 63.58L682.707 115.762Z" fill="black"/>
</svg>
