<svg width="160" height="185" viewBox="0 0 160 185" fill="none" xmlns="http://www.w3.org/2000/svg">
<mask id="path-1-outside-1_43_357" maskUnits="userSpaceOnUse" x="0" y="22.6858" width="53" height="115" fill="black">
<rect fill="white" y="22.6858" width="53" height="115"/>
<path d="M51.2754 51.261C47.5033 55.0331 44.5112 59.5112 42.4697 64.4397C40.4282 69.3683 39.377 74.6509 39.377 79.9856C39.377 85.32 40.4284 90.6021 42.4697 95.5305C44.5112 100.459 47.5032 104.938 51.2754 108.71L24.7012 135.284C17.4393 128.023 11.6782 119.401 7.74805 109.913C4.5396 102.167 2.60331 93.9671 2 85.6292H14.6953C18.2574 85.629 21.1445 82.741 21.1445 79.179C21.1445 75.6169 18.2573 72.7289 14.6953 72.7288H2.13379C2.85899 64.947 4.74675 57.3037 7.74805 50.0579C11.6782 40.5696 17.4392 31.9478 24.7012 24.6858L51.2754 51.261Z"/>
</mask>
<path d="M51.2754 51.261C47.5033 55.0331 44.5112 59.5112 42.4697 64.4397C40.4282 69.3683 39.377 74.6509 39.377 79.9856C39.377 85.32 40.4284 90.6021 42.4697 95.5305C44.5112 100.459 47.5032 104.938 51.2754 108.71L24.7012 135.284C17.4393 128.023 11.6782 119.401 7.74805 109.913C4.5396 102.167 2.60331 93.9671 2 85.6292H14.6953C18.2574 85.629 21.1445 82.741 21.1445 79.179C21.1445 75.6169 18.2573 72.7289 14.6953 72.7288H2.13379C2.85899 64.947 4.74675 57.3037 7.74805 50.0579C11.6782 40.5696 17.4392 31.9478 24.7012 24.6858L51.2754 51.261Z" fill="#E1E1E1"/>
<path d="M51.2754 51.261L51.9825 51.9681L52.6896 51.261L51.9825 50.5539L51.2754 51.261ZM42.4697 64.4397L41.5458 64.057L42.4697 64.4397ZM39.377 79.9856H38.377V79.9856L39.377 79.9856ZM42.4697 95.5305L41.5458 95.9132L41.5458 95.9132L42.4697 95.5305ZM51.2754 108.71L51.9825 109.417L52.6896 108.71L51.9825 108.003L51.2754 108.71ZM24.7012 135.284L23.9941 135.992L24.7012 136.699L25.4083 135.992L24.7012 135.284ZM7.74805 109.913L6.82417 110.296L6.82417 110.296L7.74805 109.913ZM2 85.6292V84.6292H0.925028L1.00261 85.7013L2 85.6292ZM14.6953 85.6292V86.6292H14.6954L14.6953 85.6292ZM21.1445 79.179H22.1445V79.1789L21.1445 79.179ZM14.6953 72.7288L14.6954 71.7288H14.6953V72.7288ZM2.13379 72.7288L1.1381 72.636L1.03626 73.7288H2.13379V72.7288ZM7.74805 50.0579L6.82417 49.6752L6.82417 49.6752L7.74805 50.0579ZM24.7012 24.6858L25.4083 23.9787L24.7012 23.2716L23.9941 23.9787L24.7012 24.6858ZM51.2754 51.261L50.5683 50.5539C46.7033 54.4189 43.6376 59.0072 41.5458 64.057L42.4697 64.4397L43.3936 64.8224C45.3848 60.0152 48.3033 55.6474 51.9825 51.9681L51.2754 51.261ZM42.4697 64.4397L41.5458 64.057C39.4541 69.1069 38.377 74.5196 38.377 79.9856H39.377H40.377C40.377 74.7823 41.4024 69.6297 43.3936 64.8224L42.4697 64.4397ZM39.377 79.9856L38.377 79.9856C38.377 85.4515 39.4543 90.8636 41.5458 95.9132L42.4697 95.5305L43.3936 95.1478C41.4025 90.3407 40.377 85.1886 40.377 79.9856L39.377 79.9856ZM42.4697 95.5305L41.5458 95.9132C43.6376 100.963 46.7032 105.552 50.5683 109.417L51.2754 108.71L51.9825 108.003C48.3032 104.324 45.3849 99.9552 43.3936 95.1478L42.4697 95.5305ZM51.2754 108.71L50.5683 108.003L23.9941 134.577L24.7012 135.284L25.4083 135.992L51.9825 109.417L51.2754 108.71ZM24.7012 135.284L25.4083 134.577C18.2392 127.408 12.5518 118.897 8.67193 109.531L7.74805 109.913L6.82417 110.296C10.8046 119.905 16.6393 128.637 23.9941 135.992L24.7012 135.284ZM7.74805 109.913L8.67193 109.531C5.50454 101.884 3.593 93.7884 2.99739 85.557L2 85.6292L1.00261 85.7013C1.61363 94.1458 3.57466 102.451 6.82417 110.296L7.74805 109.913ZM2 85.6292V86.6292H14.6953V85.6292V84.6292H2V85.6292ZM14.6953 85.6292L14.6954 86.6292C18.8098 86.629 22.1445 83.2932 22.1445 79.179H21.1445H20.1445C20.1445 82.1889 17.7049 84.629 14.6953 84.6292L14.6953 85.6292ZM21.1445 79.179L22.1445 79.1789C22.1445 75.0648 18.8098 71.7289 14.6954 71.7288L14.6953 72.7288L14.6953 73.7288C17.7049 73.7289 20.1445 76.169 20.1445 79.179L21.1445 79.179ZM14.6953 72.7288V71.7288H2.13379V72.7288V73.7288H14.6953V72.7288ZM2.13379 72.7288L3.12947 72.8215C3.84541 65.1392 5.70905 57.5936 8.67193 50.4405L7.74805 50.0579L6.82417 49.6752C3.78445 57.0138 1.87257 64.7548 1.1381 72.636L2.13379 72.7288ZM7.74805 50.0579L8.67193 50.4405C12.5518 41.0736 18.2392 32.562 25.4083 25.3929L24.7012 24.6858L23.9941 23.9787C16.6392 31.3335 10.8046 40.0656 6.82417 49.6752L7.74805 50.0579ZM24.7012 24.6858L23.9941 25.3929L50.5683 51.9681L51.2754 51.261L51.9825 50.5539L25.4083 23.9787L24.7012 24.6858Z" fill="#F5F5F5" mask="url(#path-1-outside-1_43_357)"/>
<mask id="path-3-outside-2_43_357" maskUnits="userSpaceOnUse" x="106.724" y="22.6858" width="53" height="115" fill="black">
<rect fill="white" x="106.724" y="22.6858" width="53" height="115"/>
<path d="M135.299 24.6858C142.561 31.9478 148.321 40.5696 152.252 50.0579C155.253 57.3037 157.141 64.9469 157.866 72.7288H146.918C143.355 72.7288 140.467 75.6168 140.467 79.179C140.467 82.7411 143.355 85.6292 146.918 85.6292H158C157.396 93.9671 155.46 102.167 152.252 109.913C148.321 119.401 142.561 128.023 135.299 135.284L108.724 108.71C112.496 104.938 115.489 100.459 117.531 95.5305C119.572 90.6022 120.623 85.32 120.623 79.9856C120.623 74.651 119.572 69.3682 117.531 64.4397C115.489 59.5111 112.496 55.0332 108.724 51.261L135.299 24.6858Z"/>
</mask>
<path d="M135.299 24.6858C142.561 31.9478 148.321 40.5696 152.252 50.0579C155.253 57.3037 157.141 64.9469 157.866 72.7288H146.918C143.355 72.7288 140.467 75.6168 140.467 79.179C140.467 82.7411 143.355 85.6292 146.918 85.6292H158C157.396 93.9671 155.46 102.167 152.252 109.913C148.321 119.401 142.561 128.023 135.299 135.284L108.724 108.71C112.496 104.938 115.489 100.459 117.531 95.5305C119.572 90.6022 120.623 85.32 120.623 79.9856C120.623 74.651 119.572 69.3682 117.531 64.4397C115.489 59.5111 112.496 55.0332 108.724 51.261L135.299 24.6858Z" fill="#E1E1E1"/>
<path d="M135.299 24.6858L136.007 23.9787L135.299 23.2716L134.592 23.9787L135.299 24.6858ZM152.252 50.0579L153.175 49.6752L153.175 49.6752L152.252 50.0579ZM157.866 72.7288V73.7288H158.963L158.862 72.636L157.866 72.7288ZM140.467 79.179L139.467 79.1789V79.179H140.467ZM158 85.6292L158.997 85.7013L159.075 84.6292H158V85.6292ZM152.252 109.913L153.175 110.296V110.296L152.252 109.913ZM135.299 135.284L134.592 135.992L135.299 136.699L136.007 135.992L135.299 135.284ZM108.724 108.71L108.017 108.003L107.31 108.71L108.017 109.417L108.724 108.71ZM117.531 95.5305L118.455 95.9132L118.455 95.9132L117.531 95.5305ZM120.623 79.9856L121.623 79.9856V79.9856H120.623ZM117.531 64.4397L118.455 64.057L118.455 64.057L117.531 64.4397ZM108.724 51.261L108.017 50.5539L107.31 51.261L108.017 51.9681L108.724 51.261ZM135.299 24.6858L134.592 25.3929C141.761 32.562 147.448 41.0736 151.328 50.4405L152.252 50.0579L153.175 49.6752C149.195 40.0657 143.361 31.3336 136.007 23.9787L135.299 24.6858ZM152.252 50.0579L151.328 50.4405C154.291 57.5937 156.154 65.1391 156.87 72.8215L157.866 72.7288L158.862 72.636C158.127 64.7548 156.215 57.0138 153.175 49.6752L152.252 50.0579ZM157.866 72.7288V71.7288H146.918V72.7288V73.7288H157.866V72.7288ZM146.918 72.7288V71.7288C142.803 71.7288 139.467 75.0645 139.467 79.1789L140.467 79.179L141.467 79.179C141.467 76.1691 143.908 73.7288 146.918 73.7288V72.7288ZM140.467 79.179H139.467C139.467 83.2934 142.803 86.6292 146.918 86.6292V85.6292V84.6292C143.908 84.6292 141.467 82.1888 141.467 79.179H140.467ZM146.918 85.6292V86.6292H158V85.6292V84.6292H146.918V85.6292ZM158 85.6292L157.002 85.557C156.407 93.7884 154.495 101.884 151.328 109.531L152.252 109.913L153.175 110.296C156.425 102.451 158.386 94.1458 158.997 85.7013L158 85.6292ZM152.252 109.913L151.328 109.531C147.448 118.897 141.761 127.408 134.592 134.577L135.299 135.284L136.007 135.992C143.361 128.637 149.195 119.905 153.175 110.296L152.252 109.913ZM135.299 135.284L136.007 134.577L109.431 108.003L108.724 108.71L108.017 109.417L134.592 135.992L135.299 135.284ZM108.724 108.71L109.431 109.417C113.296 105.552 116.363 100.963 118.455 95.9132L117.531 95.5305L116.607 95.1478C114.616 99.9551 111.696 104.324 108.017 108.003L108.724 108.71ZM117.531 95.5305L118.455 95.9132C120.546 90.8635 121.623 85.4513 121.623 79.9856L120.623 79.9856L119.623 79.9856C119.623 85.1887 118.598 90.3409 116.607 95.1478L117.531 95.5305ZM120.623 79.9856H121.623C121.623 74.5198 120.546 69.1069 118.455 64.057L117.531 64.4397L116.607 64.8224C118.598 69.6295 119.623 74.7823 119.623 79.9856H120.623ZM117.531 64.4397L118.455 64.057C116.363 59.007 113.296 54.4188 109.431 50.5539L108.724 51.261L108.017 51.9681C111.697 55.6475 114.616 60.0152 116.607 64.8224L117.531 64.4397ZM108.724 51.261L109.431 51.9681L136.007 25.3929L135.299 24.6858L134.592 23.9787L108.017 50.5539L108.724 51.261Z" fill="#F5F5F5" mask="url(#path-3-outside-2_43_357)"/>
<path d="M18.2878 156.182H23.9767L29.9852 170.841H30.2409L36.2494 156.182H41.9384V178H37.4639V163.799H37.2828L31.6365 177.893H28.5896L22.9433 163.746H22.7622V178H18.2878V156.182ZM45.739 178V156.182H60.4407V159.985H50.3519V165.184H59.6843V168.987H50.3519V174.197H60.4833V178H45.739ZM71.8425 178H64.1081V156.182H71.9064C74.101 156.182 75.9902 156.619 77.574 157.492C79.1578 158.359 80.3759 159.605 81.2281 161.232C82.0875 162.858 82.5172 164.804 82.5172 167.07C82.5172 169.342 82.0875 171.295 81.2281 172.929C80.3759 174.562 79.1507 175.816 77.5527 176.69C75.9618 177.563 74.0584 178 71.8425 178ZM68.721 174.048H71.6507C73.0143 174.048 74.1614 173.806 75.0918 173.323C76.0293 172.833 76.7324 172.077 77.2011 171.054C77.677 170.024 77.9149 168.696 77.9149 167.07C77.9149 165.457 77.677 164.14 77.2011 163.117C76.7324 162.094 76.0328 161.342 75.1024 160.859C74.172 160.376 73.025 160.134 71.6614 160.134H68.721V174.048ZM90.5472 156.182V178H85.9343V156.182H90.5472ZM107.819 156.182H112.432V170.351C112.432 171.942 112.052 173.334 111.292 174.527C110.539 175.72 109.485 176.651 108.128 177.318C106.771 177.979 105.191 178.309 103.387 178.309C101.576 178.309 99.9923 177.979 98.6358 177.318C97.2793 176.651 96.2246 175.72 95.4717 174.527C94.7189 173.334 94.3425 171.942 94.3425 170.351V156.182H98.9554V169.957C98.9554 170.788 99.1365 171.526 99.4987 172.173C99.868 172.819 100.387 173.327 101.054 173.696C101.722 174.065 102.499 174.25 103.387 174.25C104.282 174.25 105.06 174.065 105.72 173.696C106.388 173.327 106.903 172.819 107.265 172.173C107.634 171.526 107.819 170.788 107.819 169.957V156.182ZM116.227 156.182H121.916L127.925 170.841H128.18L134.189 156.182H139.878V178H135.403V163.799H135.222L129.576 177.893H126.529L120.883 163.746H120.702V178H116.227V156.182Z" fill="black"/>
<mask id="path-6-outside-3_43_357" maskUnits="userSpaceOnUse" x="22.5746" y="0" width="115" height="53" fill="black">
<rect fill="white" x="22.5746" width="115" height="53"/>
<path d="M85.722 2C93.9898 2.62001 102.119 4.55113 109.802 7.7334C119.29 11.6635 127.911 17.4238 135.173 24.6855L108.599 51.2607C104.827 47.4886 100.348 44.4956 95.4193 42.4541C90.491 40.4128 85.2087 39.3624 79.8744 39.3623C74.5399 39.3623 69.257 40.4127 64.3285 42.4541C59.4 44.4956 54.9219 47.4886 51.1498 51.2607L24.5746 24.6855C31.8365 17.4236 40.4585 11.6635 49.9467 7.7334C57.2561 4.70576 64.9701 2.81063 72.8226 2.09961V13.0674C72.8226 16.6295 75.7107 19.5176 79.2728 19.5176C82.8348 19.5174 85.722 16.6294 85.722 13.0674V2Z"/>
</mask>
<path d="M85.722 2C93.9898 2.62001 102.119 4.55113 109.802 7.7334C119.29 11.6635 127.911 17.4238 135.173 24.6855L108.599 51.2607C104.827 47.4886 100.348 44.4956 95.4193 42.4541C90.491 40.4128 85.2087 39.3624 79.8744 39.3623C74.5399 39.3623 69.257 40.4127 64.3285 42.4541C59.4 44.4956 54.9219 47.4886 51.1498 51.2607L24.5746 24.6855C31.8365 17.4236 40.4585 11.6635 49.9467 7.7334C57.2561 4.70576 64.9701 2.81063 72.8226 2.09961V13.0674C72.8226 16.6295 75.7107 19.5176 79.2728 19.5176C82.8348 19.5174 85.722 16.6294 85.722 13.0674V2Z" fill="#348BD9"/>
<path d="M85.722 2L85.7968 1.0028L84.722 0.922201V2H85.722ZM109.802 7.7334L110.185 6.80952L110.185 6.80952L109.802 7.7334ZM135.173 24.6855L135.88 25.3926L136.587 24.6855L135.88 23.9784L135.173 24.6855ZM108.599 51.2607L107.892 51.9678L108.599 52.675L109.306 51.9678L108.599 51.2607ZM95.4193 42.4541L95.802 41.5302L95.802 41.5302L95.4193 42.4541ZM79.8744 39.3623L79.8744 38.3623H79.8744V39.3623ZM64.3285 42.4541L63.9458 41.5302H63.9458L64.3285 42.4541ZM51.1498 51.2607L50.4427 51.9678L51.1498 52.675L51.8569 51.9679L51.1498 51.2607ZM24.5746 24.6855L23.8675 23.9784L23.1604 24.6855L23.8675 25.3927L24.5746 24.6855ZM49.9467 7.7334L49.564 6.80952L49.564 6.80952L49.9467 7.7334ZM72.8226 2.09961H73.8226V1.00497L72.7325 1.10368L72.8226 2.09961ZM72.8226 13.0674H73.8226H72.8226ZM79.2728 19.5176V20.5176H79.2729L79.2728 19.5176ZM85.722 13.0674H86.722H85.722ZM85.722 2L85.6473 2.9972C93.8094 3.60928 101.835 5.51572 109.419 8.65728L109.802 7.7334L110.185 6.80952C102.404 3.58653 94.1702 1.63073 85.7968 1.0028L85.722 2ZM109.802 7.7334L109.419 8.65728C118.786 12.5371 127.297 18.2238 134.466 25.3927L135.173 24.6855L135.88 23.9784C128.526 16.6238 119.794 10.7899 110.185 6.80952L109.802 7.7334ZM135.173 24.6855L134.466 23.9785L107.892 50.5536L108.599 51.2607L109.306 51.9678L135.88 25.3926L135.173 24.6855ZM108.599 51.2607L109.306 50.5536C105.441 46.6887 100.852 43.622 95.802 41.5302L95.4193 42.4541L95.0366 43.378C99.8438 45.3692 104.213 48.2886 107.892 51.9678L108.599 51.2607ZM95.4193 42.4541L95.802 41.5302C90.7523 39.4387 85.34 38.3624 79.8744 38.3623L79.8744 39.3623L79.8744 40.3623C85.0774 40.3624 90.2297 41.387 95.0366 43.378L95.4193 42.4541ZM79.8744 39.3623V38.3623C74.4086 38.3623 68.9957 39.4386 63.9458 41.5302L64.3285 42.4541L64.7112 43.378C69.5183 41.3869 74.6711 40.3623 79.8744 40.3623V39.3623ZM64.3285 42.4541L63.9458 41.5302C58.8959 43.622 54.3076 46.6887 50.4427 50.5536L51.1498 51.2607L51.8569 51.9679C55.5362 48.2885 59.9041 45.3691 64.7112 43.378L64.3285 42.4541ZM51.1498 51.2607L51.8569 50.5536L25.2817 23.9784L24.5746 24.6855L23.8675 25.3927L50.4427 51.9678L51.1498 51.2607ZM24.5746 24.6855L25.2817 25.3927C32.4508 18.2236 40.9624 12.5372 50.3293 8.65728L49.9467 7.7334L49.564 6.80952C39.9545 10.7899 31.2223 16.6236 23.8675 23.9784L24.5746 24.6855ZM49.9467 7.7334L50.3293 8.65728C57.5453 5.66838 65.1606 3.79746 72.9128 3.09554L72.8226 2.09961L72.7325 1.10368C64.7795 1.82379 56.9669 3.74315 49.564 6.80952L49.9467 7.7334ZM72.8226 2.09961H71.8226V13.0674H72.8226H73.8226V2.09961H72.8226ZM72.8226 13.0674H71.8226C71.8226 17.1818 75.1584 20.5176 79.2728 20.5176V19.5176V18.5176C76.2629 18.5176 73.8226 16.0773 73.8226 13.0674H72.8226ZM79.2728 19.5176L79.2729 20.5176C83.3873 20.5174 86.722 17.1816 86.722 13.0674H85.722H84.722C84.722 16.0773 82.2824 18.5174 79.2728 18.5176L79.2728 19.5176ZM85.722 13.0674H86.722V2H85.722H84.722V13.0674H85.722Z" fill="#F5F5F5" mask="url(#path-6-outside-3_43_357)"/>
<path d="M83.7074 79.7616C90.5206 81.6464 95.5228 87.8906 95.5228 95.3036C95.5228 104.209 88.3041 111.428 79.3988 111.429C70.4934 111.429 63.2738 104.209 63.2738 95.3036C63.2738 88.5105 67.4748 82.699 73.4203 80.3241L78.5922 27.58L83.7074 79.7616Z" fill="black"/>
</svg>
