<svg width="983" height="209" viewBox="0 0 983 209" fill="none" xmlns="http://www.w3.org/2000/svg">
<rect width="983" height="209" fill="white"/>
<circle cx="120.4" cy="55.4" r="32.4" fill="#01345C"/>
<path d="M133.965 57.0207C135.209 55.2331 135.959 53.1495 136.142 50.9796C136.324 48.8097 135.932 46.63 135.004 44.66C134.076 42.69 132.645 40.9992 130.856 39.7577C129.067 38.5163 126.983 37.768 124.813 37.5882C122.643 37.4084 120.463 37.8035 118.494 38.7337C116.526 39.6639 114.836 41.0963 113.597 42.8868C112.358 44.6772 111.612 46.7626 111.435 48.933C111.257 51.1033 111.655 53.2821 112.588 55.2499" stroke="white" stroke-width="3" stroke-linecap="round" stroke-linejoin="round"/>
<path d="M123.792 44.6253C121.835 44.6253 120.25 45.8153 120.25 47.2816C120.25 48.7478 121.835 49.9378 123.792 49.9378C125.748 49.9378 127.333 51.1278 127.333 52.5941C127.333 54.0603 125.748 55.2503 123.792 55.2503M123.792 44.6253C125.332 44.6253 126.646 45.3638 127.131 46.3962M123.792 44.6253V42.8545M123.792 55.2503C122.251 55.2503 120.937 54.5119 120.452 53.4795M123.792 55.2503V57.0212M104.312 58.792H108.554C109.074 58.792 109.588 58.9089 110.054 59.1355L113.67 60.8851C114.135 61.11 114.649 61.2269 115.171 61.2269H117.016C118.801 61.2269 120.25 62.6276 120.25 64.356C120.25 64.4268 120.202 64.487 120.133 64.5065L115.633 65.7514C114.826 65.9744 113.965 65.8964 113.211 65.5318L109.345 63.6618M120.25 63.2191L128.383 60.7204C129.092 60.5032 129.85 60.5151 130.551 60.7546C131.252 60.994 131.859 61.4488 132.286 62.0539C132.94 62.957 132.674 64.2532 131.721 64.8022L118.414 72.4823C117.998 72.7231 117.537 72.8766 117.059 72.9335C116.582 72.9905 116.098 72.9496 115.637 72.8134L104.312 69.4524" stroke="white" stroke-width="3" stroke-linecap="round" stroke-linejoin="round"/>
<path d="M39.7517 120V106.909H44.4179C45.4321 106.909 46.2737 107.084 46.9427 107.433C47.616 107.783 48.1189 108.266 48.4513 108.884C48.7836 109.498 48.9498 110.207 48.9498 111.013C48.9498 111.814 48.7815 112.519 48.4449 113.129C48.1125 113.734 47.6096 114.205 46.9363 114.541C46.2673 114.878 45.4257 115.046 44.4115 115.046H40.8767V113.346H44.2325C44.8717 113.346 45.3916 113.254 45.7922 113.071C46.197 112.888 46.4932 112.621 46.6807 112.272C46.8682 111.923 46.9619 111.503 46.9619 111.013C46.9619 110.518 46.866 110.09 46.6743 109.728C46.4868 109.366 46.1906 109.089 45.7858 108.897C45.3852 108.701 44.8589 108.603 44.2069 108.603H41.7268V120H39.7517ZM46.214 114.094L49.4484 120H47.1984L44.028 114.094H46.214ZM55.3083 120.198C54.341 120.198 53.5079 119.991 52.809 119.578C52.1144 119.161 51.5775 118.575 51.1982 117.82C50.8232 117.062 50.6357 116.173 50.6357 115.155C50.6357 114.149 50.8232 113.263 51.1982 112.496C51.5775 111.729 52.1059 111.13 52.7835 110.7C53.4653 110.269 54.2622 110.054 55.1741 110.054C55.7281 110.054 56.265 110.146 56.7849 110.329C57.3048 110.512 57.7714 110.8 58.1847 111.192C58.5981 111.584 58.9241 112.093 59.1627 112.719C59.4014 113.342 59.5207 114.098 59.5207 114.989V115.666H51.716V114.234H57.6478C57.6478 113.732 57.5455 113.286 57.341 112.898C57.1365 112.506 56.8488 112.197 56.4781 111.972C56.1116 111.746 55.6812 111.633 55.1869 111.633C54.6499 111.633 54.1812 111.765 53.7806 112.029C53.3843 112.289 53.0775 112.63 52.8602 113.052C52.6471 113.469 52.5406 113.923 52.5406 114.413V115.532C52.5406 116.188 52.6556 116.746 52.8857 117.207C53.1201 117.667 53.4461 118.018 53.8637 118.261C54.2813 118.5 54.7693 118.619 55.3275 118.619C55.6897 118.619 56.02 118.568 56.3183 118.466C56.6166 118.359 56.8744 118.202 57.0917 117.993C57.309 117.784 57.4752 117.526 57.5903 117.219L59.3992 117.545C59.2544 118.078 58.9944 118.545 58.6194 118.945C58.2487 119.342 57.782 119.651 57.2195 119.872C56.6613 120.089 56.0242 120.198 55.3083 120.198ZM69.7591 110.182L66.1988 120H64.1533L60.5866 110.182H62.6384L65.1249 117.737H65.2272L67.7073 110.182H69.7591ZM75.4529 120.198C74.4855 120.198 73.6524 119.991 72.9536 119.578C72.259 119.161 71.722 118.575 71.3428 117.82C70.9678 117.062 70.7803 116.173 70.7803 115.155C70.7803 114.149 70.9678 113.263 71.3428 112.496C71.722 111.729 72.2504 111.13 72.928 110.7C73.6098 110.269 74.4067 110.054 75.3186 110.054C75.8726 110.054 76.4095 110.146 76.9294 110.329C77.4493 110.512 77.9159 110.8 78.3293 111.192C78.7426 111.584 79.0686 112.093 79.3073 112.719C79.5459 113.342 79.6652 114.098 79.6652 114.989V115.666H71.8605V114.234H77.7923C77.7923 113.732 77.6901 113.286 77.4855 112.898C77.281 112.506 76.9933 112.197 76.6226 111.972C76.2561 111.746 75.8257 111.633 75.3314 111.633C74.7945 111.633 74.3257 111.765 73.9252 112.029C73.5289 112.289 73.222 112.63 73.0047 113.052C72.7916 113.469 72.6851 113.923 72.6851 114.413V115.532C72.6851 116.188 72.8002 116.746 73.0303 117.207C73.2646 117.667 73.5906 118.018 74.0083 118.261C74.4259 118.5 74.9138 118.619 75.472 118.619C75.8343 118.619 76.1645 118.568 76.4628 118.466C76.7611 118.359 77.0189 118.202 77.2362 117.993C77.4536 117.784 77.6198 117.526 77.7348 117.219L79.5438 117.545C79.3989 118.078 79.1389 118.545 78.7639 118.945C78.3932 119.342 77.9266 119.651 77.3641 119.872C76.8058 120.089 76.1688 120.198 75.4529 120.198ZM83.697 114.17V120H81.7858V110.182H83.6203V111.78H83.7417C83.9676 111.26 84.3213 110.842 84.8028 110.527C85.2886 110.212 85.9001 110.054 86.6373 110.054C87.3064 110.054 87.8923 110.195 88.3952 110.476C88.898 110.753 89.2879 111.166 89.5649 111.716C89.8419 112.266 89.9804 112.945 89.9804 113.755V120H88.0692V113.985C88.0692 113.273 87.8838 112.717 87.5131 112.317C87.1423 111.912 86.6331 111.71 85.9854 111.71C85.5422 111.71 85.148 111.805 84.8028 111.997C84.4619 112.189 84.1913 112.47 83.991 112.841C83.795 113.207 83.697 113.651 83.697 114.17ZM98.7631 115.928V110.182H100.681V120H98.8014V118.3H98.6991C98.4733 118.824 98.1111 119.261 97.6125 119.61C97.1182 119.955 96.5024 120.128 95.7652 120.128C95.1345 120.128 94.5763 119.989 94.0905 119.712C93.6089 119.431 93.2297 119.016 92.9527 118.466C92.68 117.916 92.5436 117.237 92.5436 116.427V110.182H94.4548V116.197C94.4548 116.866 94.6402 117.398 95.0109 117.795C95.3817 118.191 95.8632 118.389 96.4555 118.389C96.8135 118.389 97.1693 118.3 97.523 118.121C97.8809 117.942 98.1771 117.671 98.4115 117.309C98.6501 116.947 98.7673 116.487 98.7631 115.928ZM107.48 120.198C106.513 120.198 105.68 119.991 104.981 119.578C104.286 119.161 103.749 118.575 103.37 117.82C102.995 117.062 102.808 116.173 102.808 115.155C102.808 114.149 102.995 113.263 103.37 112.496C103.749 111.729 104.278 111.13 104.955 110.7C105.637 110.269 106.434 110.054 107.346 110.054C107.9 110.054 108.437 110.146 108.957 110.329C109.477 110.512 109.943 110.8 110.357 111.192C110.77 111.584 111.096 112.093 111.335 112.719C111.573 113.342 111.693 114.098 111.693 114.989V115.666H103.888V114.234H109.82C109.82 113.732 109.717 113.286 109.513 112.898C109.308 112.506 109.021 112.197 108.65 111.972C108.283 111.746 107.853 111.633 107.359 111.633C106.822 111.633 106.353 111.765 105.953 112.029C105.556 112.289 105.249 112.63 105.032 113.052C104.819 113.469 104.712 113.923 104.712 114.413V115.532C104.712 116.188 104.828 116.746 105.058 117.207C105.292 117.667 105.618 118.018 106.036 118.261C106.453 118.5 106.941 118.619 107.499 118.619C107.862 118.619 108.192 118.568 108.49 118.466C108.788 118.359 109.046 118.202 109.264 117.993C109.481 117.784 109.647 117.526 109.762 117.219L111.571 117.545C111.426 118.078 111.166 118.545 110.791 118.945C110.421 119.342 109.954 119.651 109.391 119.872C108.833 120.089 108.196 120.198 107.48 120.198ZM119.133 113.455C119.133 111.852 119.344 110.378 119.766 109.031C120.188 107.685 120.803 106.442 121.613 105.305H123.364C123.049 105.727 122.755 106.244 122.482 106.858C122.21 107.472 121.971 108.145 121.766 108.878C121.562 109.607 121.402 110.363 121.287 111.147C121.172 111.927 121.114 112.696 121.114 113.455C121.114 114.469 121.215 115.496 121.415 116.536C121.615 117.575 121.886 118.54 122.227 119.431C122.568 120.322 122.947 121.048 123.364 121.611H121.613C120.803 120.473 120.188 119.231 119.766 117.884C119.344 116.538 119.133 115.061 119.133 113.455ZM129.394 121.636V105.273H130.442V121.636H129.394ZM132.673 110.348C132.605 109.743 132.323 109.274 131.829 108.942C131.335 108.605 130.713 108.437 129.963 108.437C129.426 108.437 128.961 108.522 128.569 108.692C128.177 108.859 127.872 109.089 127.655 109.383C127.442 109.673 127.335 110.003 127.335 110.374C127.335 110.685 127.408 110.953 127.553 111.179C127.702 111.405 127.896 111.594 128.134 111.748C128.377 111.897 128.637 112.023 128.914 112.125C129.191 112.223 129.458 112.304 129.713 112.368L130.992 112.7C131.409 112.803 131.838 112.941 132.277 113.116C132.715 113.29 133.122 113.521 133.497 113.806C133.872 114.092 134.175 114.445 134.405 114.867C134.639 115.289 134.757 115.794 134.757 116.382C134.757 117.124 134.565 117.782 134.181 118.357C133.802 118.933 133.25 119.386 132.526 119.719C131.806 120.051 130.934 120.217 129.911 120.217C128.931 120.217 128.083 120.062 127.367 119.751C126.652 119.44 126.091 118.999 125.686 118.428C125.282 117.852 125.058 117.17 125.015 116.382H126.997C127.035 116.855 127.188 117.249 127.457 117.565C127.73 117.876 128.077 118.108 128.499 118.261C128.925 118.411 129.392 118.485 129.899 118.485C130.457 118.485 130.953 118.398 131.388 118.223C131.827 118.044 132.172 117.797 132.424 117.482C132.675 117.162 132.801 116.789 132.801 116.363C132.801 115.975 132.69 115.658 132.468 115.411C132.251 115.163 131.955 114.959 131.58 114.797C131.209 114.635 130.789 114.492 130.321 114.369L128.774 113.947C127.725 113.661 126.894 113.241 126.281 112.688C125.671 112.134 125.367 111.401 125.367 110.489C125.367 109.734 125.571 109.076 125.98 108.513C126.389 107.951 126.943 107.514 127.642 107.203C128.341 106.888 129.13 106.73 130.007 106.73C130.894 106.73 131.676 106.886 132.353 107.197C133.035 107.508 133.572 107.936 133.964 108.482C134.356 109.023 134.561 109.645 134.578 110.348H132.673ZM141.727 120V110.182H143.562V111.78H143.683C143.888 111.239 144.222 110.817 144.687 110.514C145.151 110.207 145.707 110.054 146.355 110.054C147.011 110.054 147.561 110.207 148.004 110.514C148.452 110.821 148.782 111.243 148.995 111.78H149.097C149.332 111.256 149.704 110.838 150.216 110.527C150.727 110.212 151.337 110.054 152.044 110.054C152.935 110.054 153.661 110.333 154.224 110.891C154.79 111.45 155.074 112.291 155.074 113.416V120H153.163V113.595C153.163 112.93 152.981 112.449 152.619 112.151C152.257 111.852 151.824 111.703 151.322 111.703C150.699 111.703 150.216 111.895 149.871 112.278C149.525 112.658 149.353 113.146 149.353 113.742V120H147.448V113.474C147.448 112.941 147.282 112.513 146.949 112.189C146.617 111.865 146.185 111.703 145.652 111.703C145.29 111.703 144.955 111.799 144.648 111.991C144.346 112.178 144.101 112.44 143.913 112.777C143.73 113.114 143.638 113.504 143.638 113.947V120H141.727ZM157.635 120V110.182H159.547V120H157.635ZM158.601 108.667C158.268 108.667 157.983 108.556 157.744 108.335C157.51 108.109 157.392 107.84 157.392 107.529C157.392 107.214 157.51 106.945 157.744 106.724C157.983 106.498 158.268 106.385 158.601 106.385C158.933 106.385 159.216 106.498 159.451 106.724C159.689 106.945 159.809 107.214 159.809 107.529C159.809 107.84 159.689 108.109 159.451 108.335C159.216 108.556 158.933 108.667 158.601 108.667ZM164.029 106.909V120H162.118V106.909H164.029ZM168.511 106.909V120H166.6V106.909H168.511ZM171.083 120V110.182H172.994V120H171.083ZM172.048 108.667C171.715 108.667 171.43 108.556 171.191 108.335C170.957 108.109 170.84 107.84 170.84 107.529C170.84 107.214 170.957 106.945 171.191 106.724C171.43 106.498 171.715 106.385 172.048 106.385C172.38 106.385 172.664 106.498 172.898 106.724C173.137 106.945 173.256 107.214 173.256 107.529C173.256 107.84 173.137 108.109 172.898 108.335C172.664 108.556 172.38 108.667 172.048 108.667ZM179.701 120.198C178.78 120.198 177.977 119.987 177.291 119.565C176.605 119.143 176.072 118.553 175.693 117.795C175.314 117.036 175.124 116.15 175.124 115.136C175.124 114.117 175.314 113.227 175.693 112.464C176.072 111.701 176.605 111.109 177.291 110.687C177.977 110.265 178.78 110.054 179.701 110.054C180.621 110.054 181.424 110.265 182.111 110.687C182.797 111.109 183.329 111.701 183.709 112.464C184.088 113.227 184.277 114.117 184.277 115.136C184.277 116.15 184.088 117.036 183.709 117.795C183.329 118.553 182.797 119.143 182.111 119.565C181.424 119.987 180.621 120.198 179.701 120.198ZM179.707 118.594C180.304 118.594 180.798 118.436 181.19 118.121C181.582 117.805 181.872 117.386 182.059 116.862C182.251 116.337 182.347 115.76 182.347 115.129C182.347 114.503 182.251 113.928 182.059 113.403C181.872 112.875 181.582 112.451 181.19 112.131C180.798 111.812 180.304 111.652 179.707 111.652C179.106 111.652 178.608 111.812 178.211 112.131C177.819 112.451 177.527 112.875 177.336 113.403C177.148 113.928 177.054 114.503 177.054 115.129C177.054 115.76 177.148 116.337 177.336 116.862C177.527 117.386 177.819 117.805 178.211 118.121C178.608 118.436 179.106 118.594 179.707 118.594ZM188.322 114.17V120H186.411V110.182H188.245V111.78H188.367C188.593 111.26 188.946 110.842 189.428 110.527C189.914 110.212 190.525 110.054 191.262 110.054C191.931 110.054 192.517 110.195 193.02 110.476C193.523 110.753 193.913 111.166 194.19 111.716C194.467 112.266 194.605 112.945 194.605 113.755V120H192.694V113.985C192.694 113.273 192.509 112.717 192.138 112.317C191.767 111.912 191.258 111.71 190.61 111.71C190.167 111.71 189.773 111.805 189.428 111.997C189.087 112.189 188.816 112.47 188.616 112.841C188.42 113.207 188.322 113.651 188.322 114.17ZM200.844 114.567C200.844 116.173 200.633 117.65 200.211 118.996C199.789 120.343 199.174 121.585 198.364 122.723H196.612C196.928 122.301 197.222 121.783 197.495 121.17C197.767 120.556 198.006 119.885 198.21 119.156C198.415 118.423 198.575 117.665 198.69 116.881C198.805 116.097 198.862 115.325 198.862 114.567C198.862 113.557 198.762 112.532 198.562 111.492C198.362 110.452 198.091 109.487 197.75 108.597C197.409 107.706 197.03 106.979 196.612 106.417H198.364C199.174 107.555 199.789 108.797 200.211 110.143C200.633 111.49 200.844 112.964 200.844 114.567Z" fill="black"/>
<circle cx="301.4" cy="55.4" r="32.4" fill="#01345C"/>
<path d="M285.312 71.1875H317.188M295.938 48.1667H297.708M295.938 55.25H297.708M295.938 62.3333H297.708M304.792 48.1667H306.563M304.792 55.25H306.563M304.792 62.3333H306.563M288.854 71.1875V42.8542C288.854 41.9149 289.227 41.014 289.891 40.3498C290.556 39.6856 291.457 39.3125 292.396 39.3125H310.104C311.043 39.3125 311.944 39.6856 312.609 40.3498C313.273 41.014 313.646 41.9149 313.646 42.8542V71.1875" stroke="white" stroke-width="3" stroke-linecap="round" stroke-linejoin="round"/>
<path d="M269.763 110.348C269.695 109.743 269.413 109.274 268.919 108.942C268.425 108.605 267.802 108.437 267.052 108.437C266.516 108.437 266.051 108.522 265.659 108.692C265.267 108.859 264.962 109.089 264.745 109.383C264.532 109.673 264.425 110.003 264.425 110.374C264.425 110.685 264.498 110.953 264.643 111.179C264.792 111.405 264.986 111.594 265.224 111.748C265.467 111.897 265.727 112.023 266.004 112.125C266.281 112.223 266.547 112.304 266.803 112.368L268.082 112.7C268.499 112.803 268.927 112.941 269.366 113.116C269.805 113.29 270.212 113.521 270.587 113.806C270.962 114.092 271.265 114.445 271.495 114.867C271.729 115.289 271.847 115.794 271.847 116.382C271.847 117.124 271.655 117.782 271.271 118.357C270.892 118.933 270.34 119.386 269.616 119.719C268.896 120.051 268.024 120.217 267.001 120.217C266.021 120.217 265.173 120.062 264.457 119.751C263.741 119.44 263.181 118.999 262.776 118.428C262.371 117.852 262.148 117.17 262.105 116.382H264.087C264.125 116.855 264.278 117.249 264.547 117.565C264.82 117.876 265.167 118.108 265.589 118.261C266.015 118.411 266.481 118.485 266.989 118.485C267.547 118.485 268.043 118.398 268.478 118.223C268.917 118.044 269.262 117.797 269.513 117.482C269.765 117.162 269.891 116.789 269.891 116.363C269.891 115.975 269.78 115.658 269.558 115.411C269.341 115.163 269.045 114.959 268.67 114.797C268.299 114.635 267.879 114.492 267.41 114.369L265.864 113.947C264.815 113.661 263.984 113.241 263.371 112.688C262.761 112.134 262.457 111.401 262.457 110.489C262.457 109.734 262.661 109.076 263.07 108.513C263.479 107.951 264.033 107.514 264.732 107.203C265.431 106.888 266.219 106.73 267.097 106.73C267.984 106.73 268.766 106.886 269.443 107.197C270.125 107.508 270.662 107.936 271.054 108.482C271.446 109.023 271.65 109.645 271.668 110.348H269.763ZM278.636 110.182V111.716H273.274V110.182H278.636ZM274.712 107.83H276.623V117.117C276.623 117.488 276.678 117.767 276.789 117.955C276.9 118.138 277.043 118.263 277.217 118.332C277.396 118.396 277.59 118.428 277.799 118.428C277.953 118.428 278.087 118.417 278.202 118.396C278.317 118.374 278.406 118.357 278.47 118.344L278.815 119.923C278.705 119.966 278.547 120.009 278.342 120.051C278.138 120.098 277.882 120.124 277.575 120.128C277.073 120.136 276.604 120.047 276.169 119.859C275.734 119.672 275.383 119.382 275.114 118.99C274.846 118.598 274.712 118.106 274.712 117.513V107.83ZM280.751 120V110.182H282.598V111.741H282.7C282.879 111.213 283.195 110.798 283.646 110.495C284.102 110.188 284.618 110.035 285.193 110.035C285.312 110.035 285.453 110.039 285.615 110.048C285.781 110.056 285.911 110.067 286.005 110.08V111.908C285.928 111.886 285.792 111.863 285.596 111.837C285.4 111.808 285.204 111.793 285.008 111.793C284.556 111.793 284.153 111.888 283.8 112.08C283.45 112.268 283.173 112.53 282.969 112.866C282.764 113.199 282.662 113.578 282.662 114.004V120H280.751ZM293.878 115.928V110.182H295.796V120H293.917V118.3H293.814C293.589 118.824 293.226 119.261 292.728 119.61C292.233 119.955 291.618 120.128 290.88 120.128C290.25 120.128 289.691 119.989 289.206 119.712C288.724 119.431 288.345 119.016 288.068 118.466C287.795 117.916 287.659 117.237 287.659 116.427V110.182H289.57V116.197C289.57 116.866 289.755 117.398 290.126 117.795C290.497 118.191 290.978 118.389 291.571 118.389C291.929 118.389 292.285 118.3 292.638 118.121C292.996 117.942 293.292 117.671 293.527 117.309C293.765 116.947 293.883 116.487 293.878 115.928ZM302.5 120.198C301.549 120.198 300.731 119.983 300.045 119.553C299.363 119.118 298.839 118.519 298.473 117.756C298.106 116.994 297.923 116.12 297.923 115.136C297.923 114.138 298.11 113.259 298.485 112.496C298.86 111.729 299.389 111.13 300.071 110.7C300.752 110.269 301.556 110.054 302.48 110.054C303.226 110.054 303.891 110.192 304.475 110.469C305.059 110.742 305.529 111.126 305.887 111.62C306.25 112.114 306.465 112.692 306.533 113.352H304.673C304.571 112.892 304.336 112.496 303.97 112.163C303.608 111.831 303.122 111.665 302.512 111.665C301.98 111.665 301.513 111.805 301.112 112.087C300.716 112.364 300.407 112.76 300.186 113.276C299.964 113.787 299.853 114.392 299.853 115.091C299.853 115.807 299.962 116.425 300.179 116.945C300.397 117.464 300.703 117.867 301.1 118.153C301.5 118.438 301.971 118.581 302.512 118.581C302.875 118.581 303.203 118.515 303.497 118.383C303.795 118.246 304.044 118.053 304.245 117.801C304.449 117.55 304.592 117.247 304.673 116.893H306.533C306.465 117.528 306.258 118.095 305.913 118.594C305.568 119.092 305.105 119.484 304.526 119.77C303.951 120.055 303.275 120.198 302.5 120.198ZM313.16 110.182V111.716H307.797V110.182H313.16ZM309.235 107.83H311.146V117.117C311.146 117.488 311.202 117.767 311.313 117.955C311.423 118.138 311.566 118.263 311.741 118.332C311.92 118.396 312.114 118.428 312.323 118.428C312.476 118.428 312.61 118.417 312.725 118.396C312.84 118.374 312.93 118.357 312.994 118.344L313.339 119.923C313.228 119.966 313.07 120.009 312.866 120.051C312.661 120.098 312.406 120.124 312.099 120.128C311.596 120.136 311.127 120.047 310.693 119.859C310.258 119.672 309.906 119.382 309.638 118.99C309.369 118.598 309.235 118.106 309.235 117.513V107.83ZM321.494 115.928V110.182H323.411V120H321.532V118.3H321.43C321.204 118.824 320.842 119.261 320.343 119.61C319.849 119.955 319.233 120.128 318.496 120.128C317.865 120.128 317.307 119.989 316.821 119.712C316.339 119.431 315.96 119.016 315.683 118.466C315.41 117.916 315.274 117.237 315.274 116.427V110.182H317.185V116.197C317.185 116.866 317.371 117.398 317.741 117.795C318.112 118.191 318.594 118.389 319.186 118.389C319.544 118.389 319.9 118.3 320.253 118.121C320.611 117.942 320.908 117.671 321.142 117.309C321.381 116.947 321.498 116.487 321.494 115.928ZM325.979 120V110.182H327.826V111.741H327.929C328.108 111.213 328.423 110.798 328.875 110.495C329.331 110.188 329.846 110.035 330.422 110.035C330.541 110.035 330.682 110.039 330.843 110.048C331.01 110.056 331.14 110.067 331.233 110.08V111.908C331.157 111.886 331.02 111.863 330.824 111.837C330.628 111.808 330.432 111.793 330.236 111.793C329.785 111.793 329.382 111.888 329.028 112.08C328.679 112.268 328.402 112.53 328.197 112.866C327.993 113.199 327.89 113.578 327.89 114.004V120H325.979ZM336.767 120.198C335.8 120.198 334.967 119.991 334.268 119.578C333.573 119.161 333.036 118.575 332.657 117.82C332.282 117.062 332.095 116.173 332.095 115.155C332.095 114.149 332.282 113.263 332.657 112.496C333.036 111.729 333.565 111.13 334.242 110.7C334.924 110.269 335.721 110.054 336.633 110.054C337.187 110.054 337.724 110.146 338.244 110.329C338.764 110.512 339.23 110.8 339.644 111.192C340.057 111.584 340.383 112.093 340.622 112.719C340.86 113.342 340.98 114.098 340.98 114.989V115.666H333.175V114.234H339.107C339.107 113.732 339.005 113.286 338.8 112.898C338.595 112.506 338.308 112.197 337.937 111.972C337.571 111.746 337.14 111.633 336.646 111.633C336.109 111.633 335.64 111.765 335.24 112.029C334.843 112.289 334.536 112.63 334.319 113.052C334.106 113.469 334 113.923 334 114.413V115.532C334 116.188 334.115 116.746 334.345 117.207C334.579 117.667 334.905 118.018 335.323 118.261C335.74 118.5 336.228 118.619 336.786 118.619C337.149 118.619 337.479 118.568 337.777 118.466C338.076 118.359 338.333 118.202 338.551 117.993C338.768 117.784 338.934 117.526 339.049 117.219L340.858 117.545C340.713 118.078 340.453 118.545 340.078 118.945C339.708 119.342 339.241 119.651 338.679 119.872C338.12 120.089 337.483 120.198 336.767 120.198Z" fill="black"/>
<circle cx="479.4" cy="55.4" r="32.4" fill="#01345C"/>
<path d="M485.448 54.8076C485.448 54.4554 485.308 54.1176 485.059 53.8685C484.81 53.6194 484.472 53.4795 484.12 53.4795C483.768 53.4795 483.43 53.6194 483.181 53.8685C482.932 54.1176 482.792 54.4554 482.792 54.8076V58.3493C482.792 58.7015 482.932 59.0393 483.181 59.2884C483.43 59.5375 483.768 59.6774 484.12 59.6774C484.472 59.6774 484.81 59.5375 485.059 59.2884C485.308 59.0393 485.448 58.7015 485.448 58.3493V54.8076ZM478.808 53.4795C479.16 53.4795 479.498 53.6194 479.747 53.8685C479.996 54.1176 480.136 54.4554 480.136 54.8076V58.3493C480.136 58.7015 479.996 59.0393 479.747 59.2884C479.498 59.5375 479.16 59.6774 478.808 59.6774C478.455 59.6774 478.118 59.5375 477.868 59.2884C477.619 59.0393 477.479 58.7015 477.479 58.3493V54.8076C477.479 54.4554 477.619 54.1176 477.868 53.8685C478.118 53.6194 478.455 53.4795 478.808 53.4795ZM474.823 54.8076C474.823 54.4554 474.683 54.1176 474.434 53.8685C474.185 53.6194 473.847 53.4795 473.495 53.4795C473.143 53.4795 472.805 53.6194 472.556 53.8685C472.307 54.1176 472.167 54.4554 472.167 54.8076V58.3493C472.167 58.7015 472.307 59.0393 472.556 59.2884C472.805 59.5375 473.143 59.6774 473.495 59.6774C473.847 59.6774 474.185 59.5375 474.434 59.2884C474.683 59.0393 474.823 58.7015 474.823 58.3493V54.8076ZM468.183 61.4482C468.535 61.4482 468.873 61.5882 469.122 61.8372C469.371 62.0863 469.511 62.4241 469.511 62.7764V67.2034C469.511 67.5557 469.371 67.8935 469.122 68.1426C468.873 68.3916 468.535 68.5316 468.183 68.5316C467.83 68.5316 467.493 68.3916 467.243 68.1426C466.994 67.8935 466.854 67.5557 466.854 67.2034V62.7764C466.854 62.4241 466.994 62.0863 467.243 61.8372C467.493 61.5882 467.83 61.4482 468.183 61.4482ZM491.646 62.7764C491.646 62.4241 491.506 62.0863 491.257 61.8372C491.008 61.5882 490.67 61.4482 490.318 61.4482C489.966 61.4482 489.628 61.5882 489.379 61.8372C489.13 62.0863 488.99 62.4241 488.99 62.7764V67.2034C488.99 67.5557 489.13 67.8935 489.379 68.1426C489.628 68.3916 489.966 68.5316 490.318 68.5316C490.67 68.5316 491.008 68.3916 491.257 68.1426C491.506 67.8935 491.646 67.5557 491.646 67.2034V62.7764ZM478.808 37.542H485.448C485.683 37.542 485.908 37.6353 486.074 37.8013C486.24 37.9674 486.334 38.1926 486.334 38.4274V41.9691C486.334 42.2039 486.24 42.4291 486.074 42.5952C485.908 42.7612 485.683 42.8545 485.448 42.8545H480.136V44.6572C483.262 44.8811 486.187 46.2809 488.323 48.575C490.459 50.869 491.646 53.8869 491.646 57.0212H492.974C494.031 57.0212 495.044 57.4409 495.792 58.1882C496.539 58.9354 496.959 59.9488 496.959 61.0055V71.6305C496.959 71.9828 496.819 72.3206 496.57 72.5697C496.321 72.8187 495.983 72.9587 495.631 72.9587H462.87C462.518 72.9587 462.18 72.8187 461.931 72.5697C461.682 72.3206 461.542 71.9828 461.542 71.6305V61.0055C461.542 59.9488 461.962 58.9354 462.709 58.1882C463.456 57.4409 464.47 57.0212 465.526 57.0212H466.854C466.854 54.0398 467.927 51.1581 469.879 48.9042C471.83 46.6503 474.529 45.1752 477.479 44.7493V38.8701C477.479 38.5179 477.619 38.1801 477.868 37.931C478.118 37.6819 478.455 37.542 478.808 37.542ZM479.25 47.2816C476.667 47.2816 474.19 48.3077 472.363 50.1342C470.537 51.9608 469.511 54.4381 469.511 57.0212V58.3493C469.511 58.7015 469.371 59.0393 469.122 59.2884C468.873 59.5375 468.535 59.6774 468.183 59.6774H465.526C465.174 59.6774 464.836 59.8173 464.587 60.0664C464.338 60.3155 464.198 60.6533 464.198 61.0055V70.3024H474.823V65.4326C474.823 65.0804 474.963 64.7426 475.212 64.4935C475.461 64.2444 475.799 64.1045 476.151 64.1045H482.349C482.702 64.1045 483.039 64.2444 483.288 64.4935C483.537 64.7426 483.677 65.0804 483.677 65.4326V70.3024H494.302V61.0055C494.302 60.6533 494.162 60.3155 493.913 60.0664C493.664 59.8173 493.327 59.6774 492.974 59.6774H490.318C489.966 59.6774 489.628 59.5375 489.379 59.2884C489.13 59.0393 488.99 58.7015 488.99 58.3493V57.0212C488.99 54.4381 487.964 51.9608 486.137 50.1342C484.311 48.3077 481.833 47.2816 479.25 47.2816ZM481.021 66.7607H477.479V70.3024H481.021V66.7607Z" fill="white"/>
<path d="M421.586 120V106.909H423.561V112.598H430.087V106.909H432.069V120H430.087V114.292H423.561V120H421.586ZM439.023 120.198C438.056 120.198 437.223 119.991 436.524 119.578C435.829 119.161 435.292 118.575 434.913 117.82C434.538 117.062 434.351 116.173 434.351 115.155C434.351 114.149 434.538 113.263 434.913 112.496C435.292 111.729 435.821 111.13 436.498 110.7C437.18 110.269 437.977 110.054 438.889 110.054C439.443 110.054 439.98 110.146 440.5 110.329C441.02 110.512 441.486 110.8 441.9 111.192C442.313 111.584 442.639 112.093 442.878 112.719C443.116 113.342 443.236 114.098 443.236 114.989V115.666H435.431V114.234H441.363C441.363 113.732 441.26 113.286 441.056 112.898C440.851 112.506 440.564 112.197 440.193 111.972C439.826 111.746 439.396 111.633 438.902 111.633C438.365 111.633 437.896 111.765 437.495 112.029C437.099 112.289 436.792 112.63 436.575 113.052C436.362 113.469 436.255 113.923 436.255 114.413V115.532C436.255 116.188 436.37 116.746 436.601 117.207C436.835 117.667 437.161 118.018 437.579 118.261C437.996 118.5 438.484 118.619 439.042 118.619C439.405 118.619 439.735 118.568 440.033 118.466C440.331 118.359 440.589 118.202 440.807 117.993C441.024 117.784 441.19 117.526 441.305 117.219L443.114 117.545C442.969 118.078 442.709 118.545 442.334 118.945C441.964 119.342 441.497 119.651 440.934 119.872C440.376 120.089 439.739 120.198 439.023 120.198ZM448.213 120.217C447.591 120.217 447.029 120.102 446.526 119.872C446.023 119.638 445.625 119.299 445.331 118.856C445.041 118.413 444.896 117.869 444.896 117.226C444.896 116.672 445.002 116.216 445.215 115.858C445.429 115.5 445.716 115.217 446.078 115.008C446.441 114.799 446.845 114.641 447.293 114.535C447.74 114.428 448.196 114.347 448.661 114.292C449.249 114.224 449.726 114.168 450.093 114.126C450.459 114.079 450.725 114.004 450.892 113.902C451.058 113.8 451.141 113.634 451.141 113.403V113.359C451.141 112.8 450.983 112.368 450.668 112.061C450.357 111.754 449.892 111.601 449.274 111.601C448.631 111.601 448.124 111.744 447.753 112.029C447.387 112.31 447.133 112.624 446.992 112.969L445.196 112.56C445.409 111.963 445.72 111.482 446.13 111.115C446.543 110.744 447.018 110.476 447.555 110.31C448.092 110.139 448.657 110.054 449.249 110.054C449.641 110.054 450.056 110.101 450.495 110.195C450.938 110.284 451.352 110.45 451.735 110.693C452.123 110.936 452.441 111.283 452.688 111.735C452.935 112.183 453.059 112.764 453.059 113.48V120H451.192V118.658H451.115C450.992 118.905 450.806 119.148 450.559 119.386C450.312 119.625 449.995 119.823 449.607 119.981C449.219 120.138 448.755 120.217 448.213 120.217ZM448.629 118.683C449.157 118.683 449.609 118.579 449.984 118.37C450.363 118.161 450.651 117.888 450.847 117.552C451.047 117.211 451.147 116.847 451.147 116.459V115.193C451.079 115.261 450.947 115.325 450.751 115.385C450.559 115.44 450.34 115.489 450.093 115.532C449.845 115.57 449.605 115.607 449.37 115.641C449.136 115.67 448.94 115.696 448.782 115.717C448.411 115.764 448.073 115.843 447.766 115.954C447.463 116.065 447.22 116.224 447.037 116.433C446.858 116.638 446.769 116.911 446.769 117.251C446.769 117.724 446.943 118.082 447.293 118.325C447.642 118.564 448.088 118.683 448.629 118.683ZM459.28 120.192C458.487 120.192 457.78 119.989 457.157 119.585C456.54 119.175 456.054 118.594 455.7 117.839C455.351 117.081 455.176 116.171 455.176 115.11C455.176 114.049 455.353 113.141 455.706 112.387C456.064 111.633 456.554 111.055 457.177 110.655C457.799 110.254 458.504 110.054 459.292 110.054C459.902 110.054 460.392 110.156 460.763 110.361C461.138 110.561 461.427 110.795 461.632 111.064C461.841 111.332 462.003 111.569 462.118 111.773H462.233V106.909H464.144V120H462.277V118.472H462.118C462.003 118.681 461.836 118.92 461.619 119.188C461.406 119.457 461.112 119.691 460.737 119.891C460.362 120.092 459.876 120.192 459.28 120.192ZM459.701 118.562C460.251 118.562 460.716 118.417 461.095 118.127C461.478 117.833 461.768 117.426 461.964 116.906C462.165 116.386 462.265 115.781 462.265 115.091C462.265 114.409 462.167 113.812 461.971 113.301C461.775 112.79 461.487 112.391 461.108 112.106C460.728 111.82 460.26 111.678 459.701 111.678C459.126 111.678 458.647 111.827 458.263 112.125C457.88 112.423 457.59 112.83 457.394 113.346C457.202 113.862 457.106 114.443 457.106 115.091C457.106 115.747 457.204 116.337 457.4 116.862C457.596 117.386 457.886 117.801 458.27 118.108C458.657 118.411 459.135 118.562 459.701 118.562ZM473.5 123.682V118.472H473.385C473.27 118.681 473.104 118.92 472.887 119.188C472.674 119.457 472.38 119.691 472.005 119.891C471.63 120.092 471.144 120.192 470.547 120.192C469.755 120.192 469.047 119.989 468.425 119.585C467.807 119.175 467.321 118.594 466.968 117.839C466.618 117.081 466.443 116.171 466.443 115.11C466.443 114.049 466.62 113.141 466.974 112.387C467.332 111.633 467.822 111.055 468.444 110.655C469.066 110.254 469.772 110.054 470.56 110.054C471.169 110.054 471.659 110.156 472.03 110.361C472.405 110.561 472.695 110.795 472.899 111.064C473.108 111.332 473.27 111.569 473.385 111.773H473.545V110.182H475.411V123.682H473.5ZM470.969 118.562C471.519 118.562 471.983 118.417 472.362 118.127C472.746 117.833 473.036 117.426 473.232 116.906C473.432 116.386 473.532 115.781 473.532 115.091C473.532 114.409 473.434 113.812 473.238 113.301C473.042 112.79 472.755 112.391 472.375 112.106C471.996 111.82 471.527 111.678 470.969 111.678C470.394 111.678 469.914 111.827 469.531 112.125C469.147 112.423 468.858 112.83 468.661 113.346C468.47 113.862 468.374 114.443 468.374 115.091C468.374 115.747 468.472 116.337 468.668 116.862C468.864 117.386 469.154 117.801 469.537 118.108C469.925 118.411 470.402 118.562 470.969 118.562ZM484.201 115.928V110.182H486.118V120H484.239V118.3H484.137C483.911 118.824 483.549 119.261 483.05 119.61C482.556 119.955 481.94 120.128 481.203 120.128C480.572 120.128 480.014 119.989 479.528 119.712C479.046 119.431 478.667 119.016 478.39 118.466C478.117 117.916 477.981 117.237 477.981 116.427V110.182H479.892V116.197C479.892 116.866 480.078 117.398 480.448 117.795C480.819 118.191 481.301 118.389 481.893 118.389C482.251 118.389 482.607 118.3 482.96 118.121C483.318 117.942 483.615 117.671 483.849 117.309C484.088 116.947 484.205 116.487 484.201 115.928ZM491.543 120.217C490.921 120.217 490.359 120.102 489.856 119.872C489.353 119.638 488.955 119.299 488.661 118.856C488.371 118.413 488.226 117.869 488.226 117.226C488.226 116.672 488.332 116.216 488.546 115.858C488.759 115.5 489.046 115.217 489.408 115.008C489.771 114.799 490.176 114.641 490.623 114.535C491.07 114.428 491.526 114.347 491.991 114.292C492.579 114.224 493.056 114.168 493.423 114.126C493.789 114.079 494.055 114.004 494.222 113.902C494.388 113.8 494.471 113.634 494.471 113.403V113.359C494.471 112.8 494.313 112.368 493.998 112.061C493.687 111.754 493.222 111.601 492.604 111.601C491.961 111.601 491.454 111.744 491.083 112.029C490.717 112.31 490.463 112.624 490.323 112.969L488.526 112.56C488.739 111.963 489.051 111.482 489.46 111.115C489.873 110.744 490.348 110.476 490.885 110.31C491.422 110.139 491.987 110.054 492.579 110.054C492.971 110.054 493.386 110.101 493.825 110.195C494.269 110.284 494.682 110.45 495.065 110.693C495.453 110.936 495.771 111.283 496.018 111.735C496.265 112.183 496.389 112.764 496.389 113.48V120H494.522V118.658H494.445C494.322 118.905 494.136 119.148 493.889 119.386C493.642 119.625 493.325 119.823 492.937 119.981C492.549 120.138 492.085 120.217 491.543 120.217ZM491.959 118.683C492.487 118.683 492.939 118.579 493.314 118.37C493.693 118.161 493.981 117.888 494.177 117.552C494.377 117.211 494.477 116.847 494.477 116.459V115.193C494.409 115.261 494.277 115.325 494.081 115.385C493.889 115.44 493.67 115.489 493.423 115.532C493.176 115.57 492.935 115.607 492.7 115.641C492.466 115.67 492.27 115.696 492.112 115.717C491.742 115.764 491.403 115.843 491.096 115.954C490.793 116.065 490.551 116.224 490.367 116.433C490.188 116.638 490.099 116.911 490.099 117.251C490.099 117.724 490.274 118.082 490.623 118.325C490.972 118.564 491.418 118.683 491.959 118.683ZM498.934 120V110.182H500.782V111.741H500.884C501.063 111.213 501.378 110.798 501.83 110.495C502.286 110.188 502.801 110.035 503.377 110.035C503.496 110.035 503.637 110.039 503.799 110.048C503.965 110.056 504.095 110.067 504.188 110.08V111.908C504.112 111.886 503.975 111.863 503.779 111.837C503.583 111.808 503.387 111.793 503.191 111.793C502.74 111.793 502.337 111.888 501.983 112.08C501.634 112.268 501.357 112.53 501.152 112.866C500.948 113.199 500.845 113.578 500.845 114.004V120H498.934ZM511.006 110.182V111.716H505.643V110.182H511.006ZM507.081 107.83H508.992V117.117C508.992 117.488 509.047 117.767 509.158 117.955C509.269 118.138 509.412 118.263 509.587 118.332C509.766 118.396 509.959 118.428 510.168 118.428C510.322 118.428 510.456 118.417 510.571 118.396C510.686 118.374 510.775 118.357 510.839 118.344L511.185 119.923C511.074 119.966 510.916 120.009 510.712 120.051C510.507 120.098 510.251 120.124 509.945 120.128C509.442 120.136 508.973 120.047 508.538 119.859C508.104 119.672 507.752 119.382 507.484 118.99C507.215 118.598 507.081 118.106 507.081 117.513V107.83ZM517.246 120.198C516.278 120.198 515.445 119.991 514.747 119.578C514.052 119.161 513.515 118.575 513.136 117.82C512.761 117.062 512.573 116.173 512.573 115.155C512.573 114.149 512.761 113.263 513.136 112.496C513.515 111.729 514.043 111.13 514.721 110.7C515.403 110.269 516.2 110.054 517.112 110.054C517.666 110.054 518.203 110.146 518.722 110.329C519.242 110.512 519.709 110.8 520.122 111.192C520.536 111.584 520.862 112.093 521.1 112.719C521.339 113.342 521.458 114.098 521.458 114.989V115.666H513.653V114.234H519.585C519.585 113.732 519.483 113.286 519.278 112.898C519.074 112.506 518.786 112.197 518.416 111.972C518.049 111.746 517.619 111.633 517.124 111.633C516.587 111.633 516.119 111.765 515.718 112.029C515.322 112.289 515.015 112.63 514.798 113.052C514.585 113.469 514.478 113.923 514.478 114.413V115.532C514.478 116.188 514.593 116.746 514.823 117.207C515.058 117.667 515.384 118.018 515.801 118.261C516.219 118.5 516.707 118.619 517.265 118.619C517.627 118.619 517.957 118.568 518.256 118.466C518.554 118.359 518.812 118.202 519.029 117.993C519.247 117.784 519.413 117.526 519.528 117.219L521.337 117.545C521.192 118.078 520.932 118.545 520.557 118.945C520.186 119.342 519.72 119.651 519.157 119.872C518.599 120.089 517.962 120.198 517.246 120.198ZM523.579 120V110.182H525.426V111.741H525.528C525.707 111.213 526.023 110.798 526.474 110.495C526.93 110.188 527.446 110.035 528.021 110.035C528.141 110.035 528.281 110.039 528.443 110.048C528.609 110.056 528.739 110.067 528.833 110.08V111.908C528.756 111.886 528.62 111.863 528.424 111.837C528.228 111.808 528.032 111.793 527.836 111.793C527.384 111.793 526.981 111.888 526.628 112.08C526.278 112.268 526.001 112.53 525.797 112.866C525.592 113.199 525.49 113.578 525.49 114.004V120H523.579ZM537.844 112.579L536.112 112.886C536.04 112.664 535.924 112.453 535.767 112.253C535.613 112.053 535.405 111.888 535.14 111.761C534.876 111.633 534.546 111.569 534.15 111.569C533.608 111.569 533.157 111.69 532.794 111.933C532.432 112.172 532.251 112.481 532.251 112.86C532.251 113.188 532.373 113.452 532.616 113.653C532.858 113.853 533.25 114.017 533.792 114.145L535.351 114.503C536.255 114.712 536.928 115.033 537.371 115.468C537.814 115.903 538.036 116.467 538.036 117.162C538.036 117.75 537.866 118.274 537.525 118.734C537.188 119.19 536.717 119.548 536.112 119.808C535.511 120.068 534.814 120.198 534.022 120.198C532.922 120.198 532.025 119.964 531.331 119.495C530.636 119.022 530.21 118.351 530.052 117.482L531.9 117.2C532.015 117.682 532.251 118.046 532.609 118.293C532.967 118.536 533.434 118.658 534.009 118.658C534.635 118.658 535.136 118.528 535.511 118.268C535.886 118.004 536.074 117.682 536.074 117.303C536.074 116.996 535.959 116.738 535.728 116.529C535.503 116.32 535.155 116.163 534.687 116.056L533.025 115.692C532.108 115.483 531.431 115.151 530.992 114.695C530.557 114.239 530.34 113.661 530.34 112.962C530.34 112.383 530.502 111.876 530.826 111.441C531.15 111.006 531.597 110.668 532.168 110.425C532.739 110.178 533.393 110.054 534.13 110.054C535.191 110.054 536.027 110.284 536.636 110.744C537.245 111.2 537.648 111.812 537.844 112.579Z" fill="black"/>
<circle cx="698.4" cy="55.4" r="32.4" fill="#01345C"/>
<mask id="path-12-inside-1_275_413" fill="white">
<path d="M703.19 50.6966C704.095 50.6966 704.964 51.0564 705.604 51.6969C706.245 52.3373 706.605 53.206 706.605 54.1117V63.5968C706.605 65.8113 705.725 67.9351 704.159 69.501C702.593 71.0669 700.469 71.9466 698.255 71.9466C696.04 71.9466 693.917 71.0669 692.351 69.501C690.785 67.9351 689.905 65.8113 689.905 63.5968V54.1117C689.905 53.206 690.265 52.3373 690.906 51.6969C691.546 51.0564 692.415 50.6966 693.32 50.6966H703.19ZM703.19 52.9734H693.32C693.019 52.9734 692.729 53.0933 692.515 53.3068C692.302 53.5203 692.182 53.8098 692.182 54.1117V63.5968C692.182 65.2075 692.822 66.7522 693.961 67.8911C695.1 69.03 696.644 69.6698 698.255 69.6698C699.866 69.6698 701.41 69.03 702.549 67.8911C703.688 66.7522 704.328 65.2075 704.328 63.5968V54.1117C704.328 53.8098 704.208 53.5203 703.994 53.3068C703.781 53.0933 703.491 52.9734 703.19 52.9734ZM683.451 50.6966H689.76C689.15 51.3309 688.722 52.1172 688.519 52.9734H683.451C683.149 52.9734 682.86 53.0933 682.646 53.3068C682.433 53.5203 682.313 53.8098 682.313 54.1117V62.079C682.312 62.8407 682.503 63.5904 682.867 64.2595C683.231 64.9285 683.757 65.4955 684.397 65.9086C685.037 66.3216 685.771 66.5675 686.53 66.6237C687.29 66.6799 688.052 66.5447 688.746 66.2303C688.947 66.9741 689.237 67.6814 689.602 68.3432C688.562 68.7976 687.425 68.9858 686.294 68.8907C685.163 68.7956 684.074 68.4202 683.124 67.7985C682.175 67.1768 681.396 66.3282 680.856 65.3297C680.317 64.3311 680.035 63.2138 680.036 62.079V54.1117C680.036 53.206 680.396 52.3373 681.036 51.6969C681.677 51.0564 682.546 50.6966 683.451 50.6966ZM713.05 50.6966C713.955 50.6966 714.824 51.0564 715.464 51.6969C716.105 52.3373 716.465 53.206 716.465 54.1117V62.0805C716.465 63.2146 716.183 64.3309 715.644 65.3288C715.105 66.3267 714.327 67.1747 713.378 67.7963C712.429 68.4179 711.341 68.7935 710.211 68.8892C709.081 68.985 707.945 68.7978 706.905 68.3447L706.99 68.1899C707.315 67.5736 707.578 66.9194 707.766 66.2334C708.459 66.5454 709.22 66.6788 709.978 66.6214C710.737 66.5639 711.468 66.3175 712.107 65.9045C712.746 65.4916 713.271 64.9253 713.634 64.2573C713.998 63.5893 714.188 62.841 714.188 62.0805V54.1117C714.188 53.8101 714.068 53.5208 713.855 53.3073C713.642 53.0939 713.353 52.9738 713.051 52.9734H707.992C707.789 52.117 707.361 51.3307 706.75 50.6966H713.05ZM698.25 38.5537C698.948 38.5537 699.639 38.6911 700.283 38.9581C700.928 39.2251 701.514 39.6164 702.007 40.1097C702.5 40.603 702.892 41.1887 703.159 41.8332C703.426 42.4777 703.563 43.1686 703.563 43.8662C703.563 44.5639 703.426 45.2547 703.159 45.8992C702.892 46.5438 702.5 47.1294 702.007 47.6227C701.514 48.116 700.928 48.5073 700.283 48.7743C699.639 49.0413 698.948 49.1787 698.25 49.1787C696.841 49.1787 695.49 48.619 694.494 47.6227C693.498 46.6264 692.938 45.2752 692.938 43.8662C692.938 42.4572 693.498 41.106 694.494 40.1097C695.49 39.1134 696.841 38.5537 698.25 38.5537ZM710.398 40.0716C710.996 40.0716 711.588 40.1893 712.14 40.4182C712.693 40.647 713.195 40.9824 713.618 41.4053C714.041 41.8281 714.376 42.3301 714.605 42.8826C714.834 43.435 714.951 44.0272 714.951 44.6251C714.951 45.2231 714.834 45.8153 714.605 46.3677C714.376 46.9202 714.041 47.4222 713.618 47.845C713.195 48.2678 712.693 48.6033 712.14 48.8321C711.588 49.0609 710.996 49.1787 710.398 49.1787C709.19 49.1787 708.032 48.699 707.178 47.845C706.324 46.991 705.844 45.8328 705.844 44.6251C705.844 43.4175 706.324 42.2592 707.178 41.4053C708.032 40.5513 709.19 40.0716 710.398 40.0716ZM686.103 40.0716C686.701 40.0716 687.293 40.1893 687.846 40.4182C688.398 40.647 688.9 40.9824 689.323 41.4053C689.746 41.8281 690.081 42.3301 690.31 42.8826C690.539 43.435 690.657 44.0272 690.657 44.6251C690.657 45.2231 690.539 45.8153 690.31 46.3677C690.081 46.9202 689.746 47.4222 689.323 47.845C688.9 48.2678 688.398 48.6033 687.846 48.8321C687.293 49.0609 686.701 49.1787 686.103 49.1787C684.895 49.1787 683.737 48.699 682.883 47.845C682.029 46.991 681.549 45.8328 681.549 44.6251C681.549 43.4175 682.029 42.2592 682.883 41.4053C683.737 40.5513 684.895 40.0716 686.103 40.0716ZM698.25 40.8305C697.445 40.8305 696.673 41.1503 696.104 41.7196C695.535 42.2889 695.215 43.0611 695.215 43.8662C695.215 44.6713 695.535 45.4435 696.104 46.0128C696.673 46.5821 697.445 46.9019 698.25 46.9019C699.056 46.9019 699.828 46.5821 700.397 46.0128C700.966 45.4435 701.286 44.6713 701.286 43.8662C701.286 43.0611 700.966 42.2889 700.397 41.7196C699.828 41.1503 699.056 40.8305 698.25 40.8305ZM710.398 42.3484C710.099 42.3484 709.803 42.4072 709.527 42.5217C709.25 42.6361 708.999 42.8038 708.788 43.0152C708.576 43.2266 708.409 43.4776 708.294 43.7539C708.18 44.0301 708.121 44.3261 708.121 44.6251C708.121 44.9241 708.18 45.2202 708.294 45.4964C708.409 45.7727 708.576 46.0237 708.788 46.2351C708.999 46.4465 709.25 46.6142 709.527 46.7286C709.803 46.843 710.099 46.9019 710.398 46.9019C711.002 46.9019 711.581 46.6621 712.008 46.2351C712.435 45.8081 712.675 45.229 712.675 44.6251C712.675 44.0213 712.435 43.4422 712.008 43.0152C711.581 42.5882 711.002 42.3484 710.398 42.3484ZM686.103 42.3484C685.804 42.3484 685.508 42.4072 685.232 42.5217C684.955 42.6361 684.704 42.8038 684.493 43.0152C684.282 43.2266 684.114 43.4776 684 43.7539C683.885 44.0301 683.826 44.3261 683.826 44.6251C683.826 44.9241 683.885 45.2202 684 45.4964C684.114 45.7727 684.282 46.0237 684.493 46.2351C684.704 46.4465 684.955 46.6142 685.232 46.7286C685.508 46.843 685.804 46.9019 686.103 46.9019C686.707 46.9019 687.286 46.6621 687.713 46.2351C688.14 45.8081 688.38 45.229 688.38 44.6251C688.38 44.0213 688.14 43.4422 687.713 43.0152C687.286 42.5882 686.707 42.3484 686.103 42.3484Z"/>
</mask>
<path d="M703.19 50.6966C704.095 50.6966 704.964 51.0564 705.604 51.6969C706.245 52.3373 706.605 53.206 706.605 54.1117V63.5968C706.605 65.8113 705.725 67.9351 704.159 69.501C702.593 71.0669 700.469 71.9466 698.255 71.9466C696.04 71.9466 693.917 71.0669 692.351 69.501C690.785 67.9351 689.905 65.8113 689.905 63.5968V54.1117C689.905 53.206 690.265 52.3373 690.906 51.6969C691.546 51.0564 692.415 50.6966 693.32 50.6966H703.19ZM703.19 52.9734H693.32C693.019 52.9734 692.729 53.0933 692.515 53.3068C692.302 53.5203 692.182 53.8098 692.182 54.1117V63.5968C692.182 65.2075 692.822 66.7522 693.961 67.8911C695.1 69.03 696.644 69.6698 698.255 69.6698C699.866 69.6698 701.41 69.03 702.549 67.8911C703.688 66.7522 704.328 65.2075 704.328 63.5968V54.1117C704.328 53.8098 704.208 53.5203 703.994 53.3068C703.781 53.0933 703.491 52.9734 703.19 52.9734ZM683.451 50.6966H689.76C689.15 51.3309 688.722 52.1172 688.519 52.9734H683.451C683.149 52.9734 682.86 53.0933 682.646 53.3068C682.433 53.5203 682.313 53.8098 682.313 54.1117V62.079C682.312 62.8407 682.503 63.5904 682.867 64.2595C683.231 64.9285 683.757 65.4955 684.397 65.9086C685.037 66.3216 685.771 66.5675 686.53 66.6237C687.29 66.6799 688.052 66.5447 688.746 66.2303C688.947 66.9741 689.237 67.6814 689.602 68.3432C688.562 68.7976 687.425 68.9858 686.294 68.8907C685.163 68.7956 684.074 68.4202 683.124 67.7985C682.175 67.1768 681.396 66.3282 680.856 65.3297C680.317 64.3311 680.035 63.2138 680.036 62.079V54.1117C680.036 53.206 680.396 52.3373 681.036 51.6969C681.677 51.0564 682.546 50.6966 683.451 50.6966ZM713.05 50.6966C713.955 50.6966 714.824 51.0564 715.464 51.6969C716.105 52.3373 716.465 53.206 716.465 54.1117V62.0805C716.465 63.2146 716.183 64.3309 715.644 65.3288C715.105 66.3267 714.327 67.1747 713.378 67.7963C712.429 68.4179 711.341 68.7935 710.211 68.8892C709.081 68.985 707.945 68.7978 706.905 68.3447L706.99 68.1899C707.315 67.5736 707.578 66.9194 707.766 66.2334C708.459 66.5454 709.22 66.6788 709.978 66.6214C710.737 66.5639 711.468 66.3175 712.107 65.9045C712.746 65.4916 713.271 64.9253 713.634 64.2573C713.998 63.5893 714.188 62.841 714.188 62.0805V54.1117C714.188 53.8101 714.068 53.5208 713.855 53.3073C713.642 53.0939 713.353 52.9738 713.051 52.9734H707.992C707.789 52.117 707.361 51.3307 706.75 50.6966H713.05ZM698.25 38.5537C698.948 38.5537 699.639 38.6911 700.283 38.9581C700.928 39.2251 701.514 39.6164 702.007 40.1097C702.5 40.603 702.892 41.1887 703.159 41.8332C703.426 42.4777 703.563 43.1686 703.563 43.8662C703.563 44.5639 703.426 45.2547 703.159 45.8992C702.892 46.5438 702.5 47.1294 702.007 47.6227C701.514 48.116 700.928 48.5073 700.283 48.7743C699.639 49.0413 698.948 49.1787 698.25 49.1787C696.841 49.1787 695.49 48.619 694.494 47.6227C693.498 46.6264 692.938 45.2752 692.938 43.8662C692.938 42.4572 693.498 41.106 694.494 40.1097C695.49 39.1134 696.841 38.5537 698.25 38.5537ZM710.398 40.0716C710.996 40.0716 711.588 40.1893 712.14 40.4182C712.693 40.647 713.195 40.9824 713.618 41.4053C714.041 41.8281 714.376 42.3301 714.605 42.8826C714.834 43.435 714.951 44.0272 714.951 44.6251C714.951 45.2231 714.834 45.8153 714.605 46.3677C714.376 46.9202 714.041 47.4222 713.618 47.845C713.195 48.2678 712.693 48.6033 712.14 48.8321C711.588 49.0609 710.996 49.1787 710.398 49.1787C709.19 49.1787 708.032 48.699 707.178 47.845C706.324 46.991 705.844 45.8328 705.844 44.6251C705.844 43.4175 706.324 42.2592 707.178 41.4053C708.032 40.5513 709.19 40.0716 710.398 40.0716ZM686.103 40.0716C686.701 40.0716 687.293 40.1893 687.846 40.4182C688.398 40.647 688.9 40.9824 689.323 41.4053C689.746 41.8281 690.081 42.3301 690.31 42.8826C690.539 43.435 690.657 44.0272 690.657 44.6251C690.657 45.2231 690.539 45.8153 690.31 46.3677C690.081 46.9202 689.746 47.4222 689.323 47.845C688.9 48.2678 688.398 48.6033 687.846 48.8321C687.293 49.0609 686.701 49.1787 686.103 49.1787C684.895 49.1787 683.737 48.699 682.883 47.845C682.029 46.991 681.549 45.8328 681.549 44.6251C681.549 43.4175 682.029 42.2592 682.883 41.4053C683.737 40.5513 684.895 40.0716 686.103 40.0716ZM698.25 40.8305C697.445 40.8305 696.673 41.1503 696.104 41.7196C695.535 42.2889 695.215 43.0611 695.215 43.8662C695.215 44.6713 695.535 45.4435 696.104 46.0128C696.673 46.5821 697.445 46.9019 698.25 46.9019C699.056 46.9019 699.828 46.5821 700.397 46.0128C700.966 45.4435 701.286 44.6713 701.286 43.8662C701.286 43.0611 700.966 42.2889 700.397 41.7196C699.828 41.1503 699.056 40.8305 698.25 40.8305ZM710.398 42.3484C710.099 42.3484 709.803 42.4072 709.527 42.5217C709.25 42.6361 708.999 42.8038 708.788 43.0152C708.576 43.2266 708.409 43.4776 708.294 43.7539C708.18 44.0301 708.121 44.3261 708.121 44.6251C708.121 44.9241 708.18 45.2202 708.294 45.4964C708.409 45.7727 708.576 46.0237 708.788 46.2351C708.999 46.4465 709.25 46.6142 709.527 46.7286C709.803 46.843 710.099 46.9019 710.398 46.9019C711.002 46.9019 711.581 46.6621 712.008 46.2351C712.435 45.8081 712.675 45.229 712.675 44.6251C712.675 44.0213 712.435 43.4422 712.008 43.0152C711.581 42.5882 711.002 42.3484 710.398 42.3484ZM686.103 42.3484C685.804 42.3484 685.508 42.4072 685.232 42.5217C684.955 42.6361 684.704 42.8038 684.493 43.0152C684.282 43.2266 684.114 43.4776 684 43.7539C683.885 44.0301 683.826 44.3261 683.826 44.6251C683.826 44.9241 683.885 45.2202 684 45.4964C684.114 45.7727 684.282 46.0237 684.493 46.2351C684.704 46.4465 684.955 46.6142 685.232 46.7286C685.508 46.843 685.804 46.9019 686.103 46.9019C686.707 46.9019 687.286 46.6621 687.713 46.2351C688.14 45.8081 688.38 45.229 688.38 44.6251C688.38 44.0213 688.14 43.4422 687.713 43.0152C687.286 42.5882 686.707 42.3484 686.103 42.3484Z" fill="white" stroke="white" stroke-width="6" mask="url(#path-12-inside-1_275_413)"/>
<path d="M618.596 120V106.909H626.804V108.609H620.572V112.598H626.376V114.292H620.572V118.3H626.881V120H618.596ZM629.289 120V110.182H631.123V111.78H631.245C631.449 111.239 631.784 110.817 632.248 110.514C632.713 110.207 633.269 110.054 633.917 110.054C634.573 110.054 635.123 110.207 635.566 110.514C636.013 110.821 636.343 111.243 636.556 111.78H636.659C636.893 111.256 637.266 110.838 637.777 110.527C638.289 110.212 638.898 110.054 639.605 110.054C640.496 110.054 641.223 110.333 641.785 110.891C642.352 111.45 642.635 112.291 642.635 113.416V120H640.724V113.595C640.724 112.93 640.543 112.449 640.181 112.151C639.819 111.852 639.386 111.703 638.883 111.703C638.261 111.703 637.777 111.895 637.432 112.278C637.087 112.658 636.914 113.146 636.914 113.742V120H635.01V113.474C635.01 112.941 634.843 112.513 634.511 112.189C634.179 111.865 633.746 111.703 633.213 111.703C632.851 111.703 632.517 111.799 632.21 111.991C631.907 112.178 631.662 112.44 631.475 112.777C631.292 113.114 631.2 113.504 631.2 113.947V120H629.289ZM645.197 123.682V110.182H647.063V111.773H647.223C647.334 111.569 647.494 111.332 647.703 111.064C647.911 110.795 648.201 110.561 648.572 110.361C648.943 110.156 649.433 110.054 650.042 110.054C650.835 110.054 651.542 110.254 652.164 110.655C652.786 111.055 653.274 111.633 653.628 112.387C653.986 113.141 654.165 114.049 654.165 115.11C654.165 116.171 653.988 117.081 653.634 117.839C653.281 118.594 652.795 119.175 652.177 119.585C651.559 119.989 650.854 120.192 650.061 120.192C649.465 120.192 648.977 120.092 648.597 119.891C648.222 119.691 647.928 119.457 647.715 119.188C647.502 118.92 647.338 118.681 647.223 118.472H647.108V123.682H645.197ZM647.07 115.091C647.07 115.781 647.17 116.386 647.37 116.906C647.57 117.426 647.86 117.833 648.24 118.127C648.619 118.417 649.083 118.562 649.633 118.562C650.204 118.562 650.681 118.411 651.065 118.108C651.448 117.801 651.738 117.386 651.934 116.862C652.134 116.337 652.235 115.747 652.235 115.091C652.235 114.443 652.137 113.862 651.941 113.346C651.749 112.83 651.459 112.423 651.071 112.125C650.688 111.827 650.208 111.678 649.633 111.678C649.079 111.678 648.61 111.82 648.227 112.106C647.847 112.391 647.56 112.79 647.364 113.301C647.168 113.812 647.07 114.409 647.07 115.091ZM658.218 106.909V120H656.306V106.909H658.218ZM664.924 120.198C664.004 120.198 663.201 119.987 662.515 119.565C661.828 119.143 661.296 118.553 660.917 117.795C660.537 117.036 660.348 116.15 660.348 115.136C660.348 114.117 660.537 113.227 660.917 112.464C661.296 111.701 661.828 111.109 662.515 110.687C663.201 110.265 664.004 110.054 664.924 110.054C665.845 110.054 666.648 110.265 667.334 110.687C668.02 111.109 668.553 111.701 668.932 112.464C669.311 113.227 669.501 114.117 669.501 115.136C669.501 116.15 669.311 117.036 668.932 117.795C668.553 118.553 668.02 119.143 667.334 119.565C666.648 119.987 665.845 120.198 664.924 120.198ZM664.931 118.594C665.527 118.594 666.022 118.436 666.414 118.121C666.806 117.805 667.096 117.386 667.283 116.862C667.475 116.337 667.571 115.76 667.571 115.129C667.571 114.503 667.475 113.928 667.283 113.403C667.096 112.875 666.806 112.451 666.414 112.131C666.022 111.812 665.527 111.652 664.931 111.652C664.33 111.652 663.831 111.812 663.435 112.131C663.043 112.451 662.751 112.875 662.559 113.403C662.372 113.928 662.278 114.503 662.278 115.129C662.278 115.76 662.372 116.337 662.559 116.862C662.751 117.386 663.043 117.805 663.435 118.121C663.831 118.436 664.33 118.594 664.931 118.594ZM672.509 123.682C672.223 123.682 671.963 123.658 671.729 123.612C671.494 123.569 671.32 123.522 671.205 123.471L671.665 121.905C672.014 121.999 672.325 122.039 672.598 122.026C672.871 122.013 673.112 121.911 673.32 121.719C673.533 121.528 673.721 121.214 673.883 120.78L674.119 120.128L670.527 110.182H672.572L675.059 117.801H675.161L677.648 110.182H679.7L675.653 121.31C675.466 121.822 675.227 122.254 674.938 122.608C674.648 122.966 674.303 123.234 673.902 123.413C673.501 123.592 673.037 123.682 672.509 123.682ZM685.393 120.198C684.426 120.198 683.593 119.991 682.894 119.578C682.199 119.161 681.662 118.575 681.283 117.82C680.908 117.062 680.721 116.173 680.721 115.155C680.721 114.149 680.908 113.263 681.283 112.496C681.662 111.729 682.191 111.13 682.868 110.7C683.55 110.269 684.347 110.054 685.259 110.054C685.813 110.054 686.35 110.146 686.87 110.329C687.39 110.512 687.856 110.8 688.27 111.192C688.683 111.584 689.009 112.093 689.248 112.719C689.486 113.342 689.606 114.098 689.606 114.989V115.666H681.801V114.234H687.733C687.733 113.732 687.631 113.286 687.426 112.898C687.221 112.506 686.934 112.197 686.563 111.972C686.197 111.746 685.766 111.633 685.272 111.633C684.735 111.633 684.266 111.765 683.866 112.029C683.469 112.289 683.162 112.63 682.945 113.052C682.732 113.469 682.626 113.923 682.626 114.413V115.532C682.626 116.188 682.741 116.746 682.971 117.207C683.205 117.667 683.531 118.018 683.949 118.261C684.366 118.5 684.854 118.619 685.412 118.619C685.775 118.619 686.105 118.568 686.403 118.466C686.702 118.359 686.959 118.202 687.177 117.993C687.394 117.784 687.56 117.526 687.675 117.219L689.484 117.545C689.339 118.078 689.079 118.545 688.704 118.945C688.334 119.342 687.867 119.651 687.305 119.872C686.746 120.089 686.109 120.198 685.393 120.198ZM695.958 120.198C694.99 120.198 694.157 119.991 693.458 119.578C692.764 119.161 692.227 118.575 691.848 117.82C691.473 117.062 691.285 116.173 691.285 115.155C691.285 114.149 691.473 113.263 691.848 112.496C692.227 111.729 692.755 111.13 693.433 110.7C694.115 110.269 694.912 110.054 695.824 110.054C696.377 110.054 696.914 110.146 697.434 110.329C697.954 110.512 698.421 110.8 698.834 111.192C699.248 111.584 699.574 112.093 699.812 112.719C700.051 113.342 700.17 114.098 700.17 114.989V115.666H692.365V114.234H698.297C698.297 113.732 698.195 113.286 697.99 112.898C697.786 112.506 697.498 112.197 697.127 111.972C696.761 111.746 696.331 111.633 695.836 111.633C695.299 111.633 694.831 111.765 694.43 112.029C694.034 112.289 693.727 112.63 693.51 113.052C693.297 113.469 693.19 113.923 693.19 114.413V115.532C693.19 116.188 693.305 116.746 693.535 117.207C693.77 117.667 694.096 118.018 694.513 118.261C694.931 118.5 695.419 118.619 695.977 118.619C696.339 118.619 696.669 118.568 696.968 118.466C697.266 118.359 697.524 118.202 697.741 117.993C697.958 117.784 698.125 117.526 698.24 117.219L700.049 117.545C699.904 118.078 699.644 118.545 699.269 118.945C698.898 119.342 698.431 119.651 697.869 119.872C697.311 120.089 696.674 120.198 695.958 120.198ZM714.412 112.579L712.679 112.886C712.607 112.664 712.492 112.453 712.334 112.253C712.181 112.053 711.972 111.888 711.708 111.761C711.444 111.633 711.113 111.569 710.717 111.569C710.176 111.569 709.724 111.69 709.362 111.933C709 112.172 708.819 112.481 708.819 112.86C708.819 113.188 708.94 113.452 709.183 113.653C709.426 113.853 709.818 114.017 710.359 114.145L711.919 114.503C712.822 114.712 713.495 115.033 713.939 115.468C714.382 115.903 714.603 116.467 714.603 117.162C714.603 117.75 714.433 118.274 714.092 118.734C713.755 119.19 713.284 119.548 712.679 119.808C712.078 120.068 711.382 120.198 710.589 120.198C709.49 120.198 708.593 119.964 707.898 119.495C707.203 119.022 706.777 118.351 706.62 117.482L708.467 117.2C708.582 117.682 708.819 118.046 709.176 118.293C709.534 118.536 710.001 118.658 710.576 118.658C711.203 118.658 711.703 118.528 712.078 118.268C712.453 118.004 712.641 117.682 712.641 117.303C712.641 116.996 712.526 116.738 712.296 116.529C712.07 116.32 711.723 116.163 711.254 116.056L709.592 115.692C708.676 115.483 707.998 115.151 707.559 114.695C707.125 114.239 706.907 113.661 706.907 112.962C706.907 112.383 707.069 111.876 707.393 111.441C707.717 111.006 708.164 110.668 708.735 110.425C709.306 110.178 709.961 110.054 710.698 110.054C711.759 110.054 712.594 110.284 713.203 110.744C713.813 111.2 714.216 111.812 714.412 112.579ZM721.288 110.182V111.716H715.925V110.182H721.288ZM717.363 107.83H719.274V117.117C719.274 117.488 719.33 117.767 719.441 117.955C719.551 118.138 719.694 118.263 719.869 118.332C720.048 118.396 720.242 118.428 720.45 118.428C720.604 118.428 720.738 118.417 720.853 118.396C720.968 118.374 721.058 118.357 721.122 118.344L721.467 119.923C721.356 119.966 721.198 120.009 720.994 120.051C720.789 120.098 720.534 120.124 720.227 120.128C719.724 120.136 719.255 120.047 718.82 119.859C718.386 119.672 718.034 119.382 717.766 118.99C717.497 118.598 717.363 118.106 717.363 117.513V107.83ZM723.402 120V110.182H725.249V111.741H725.352C725.531 111.213 725.846 110.798 726.298 110.495C726.754 110.188 727.269 110.035 727.844 110.035C727.964 110.035 728.104 110.039 728.266 110.048C728.433 110.056 728.562 110.067 728.656 110.08V111.908C728.58 111.886 728.443 111.863 728.247 111.837C728.051 111.808 727.855 111.793 727.659 111.793C727.207 111.793 726.805 111.888 726.451 112.08C726.102 112.268 725.825 112.53 725.62 112.866C725.415 113.199 725.313 113.578 725.313 114.004V120H723.402ZM734.19 120.198C733.223 120.198 732.39 119.991 731.691 119.578C730.996 119.161 730.459 118.575 730.08 117.82C729.705 117.062 729.518 116.173 729.518 115.155C729.518 114.149 729.705 113.263 730.08 112.496C730.459 111.729 730.988 111.13 731.665 110.7C732.347 110.269 733.144 110.054 734.056 110.054C734.61 110.054 735.147 110.146 735.667 110.329C736.187 110.512 736.653 110.8 737.067 111.192C737.48 111.584 737.806 112.093 738.045 112.719C738.283 113.342 738.403 114.098 738.403 114.989V115.666H730.598V114.234H736.53C736.53 113.732 736.427 113.286 736.223 112.898C736.018 112.506 735.731 112.197 735.36 111.972C734.993 111.746 734.563 111.633 734.069 111.633C733.532 111.633 733.063 111.765 732.662 112.029C732.266 112.289 731.959 112.63 731.742 113.052C731.529 113.469 731.422 113.923 731.422 114.413V115.532C731.422 116.188 731.537 116.746 731.768 117.207C732.002 117.667 732.328 118.018 732.746 118.261C733.163 118.5 733.651 118.619 734.209 118.619C734.572 118.619 734.902 118.568 735.2 118.466C735.498 118.359 735.756 118.202 735.974 117.993C736.191 117.784 736.357 117.526 736.472 117.219L738.281 117.545C738.136 118.078 737.876 118.545 737.501 118.945C737.131 119.342 736.664 119.651 736.101 119.872C735.543 120.089 734.906 120.198 734.19 120.198ZM742.434 114.17V120H740.523V110.182H742.358V111.78H742.479C742.705 111.26 743.059 110.842 743.54 110.527C744.026 110.212 744.637 110.054 745.375 110.054C746.044 110.054 746.63 110.195 747.132 110.476C747.635 110.753 748.025 111.166 748.302 111.716C748.579 112.266 748.718 112.945 748.718 113.755V120H746.806V113.985C746.806 113.273 746.621 112.717 746.25 112.317C745.88 111.912 745.37 111.71 744.723 111.71C744.279 111.71 743.885 111.805 743.54 111.997C743.199 112.189 742.929 112.47 742.728 112.841C742.532 113.207 742.434 113.651 742.434 114.17ZM755.397 123.886C754.618 123.886 753.946 123.784 753.384 123.58C752.826 123.375 752.37 123.104 752.016 122.768C751.662 122.431 751.398 122.063 751.223 121.662L752.866 120.984C752.981 121.172 753.135 121.37 753.326 121.579C753.522 121.792 753.787 121.973 754.119 122.122C754.456 122.271 754.888 122.346 755.417 122.346C756.141 122.346 756.74 122.169 757.213 121.815C757.686 121.466 757.922 120.908 757.922 120.141V118.21H757.801C757.686 118.419 757.52 118.651 757.302 118.907C757.089 119.163 756.795 119.384 756.42 119.572C756.045 119.759 755.557 119.853 754.956 119.853C754.181 119.853 753.482 119.672 752.86 119.31C752.242 118.943 751.752 118.404 751.39 117.692C751.032 116.977 750.853 116.097 750.853 115.053C750.853 114.009 751.029 113.114 751.383 112.368C751.741 111.622 752.231 111.051 752.853 110.655C753.475 110.254 754.181 110.054 754.969 110.054C755.578 110.054 756.071 110.156 756.446 110.361C756.821 110.561 757.113 110.795 757.321 111.064C757.534 111.332 757.699 111.569 757.814 111.773H757.954V110.182H759.827V120.217C759.827 121.061 759.631 121.754 759.239 122.295C758.847 122.836 758.316 123.237 757.647 123.496C756.983 123.756 756.233 123.886 755.397 123.886ZM755.378 118.268C755.928 118.268 756.392 118.14 756.772 117.884C757.155 117.624 757.445 117.254 757.641 116.772C757.841 116.286 757.941 115.705 757.941 115.027C757.941 114.366 757.843 113.785 757.647 113.282C757.451 112.779 757.164 112.387 756.784 112.106C756.405 111.82 755.936 111.678 755.378 111.678C754.803 111.678 754.324 111.827 753.94 112.125C753.556 112.419 753.267 112.82 753.071 113.327C752.879 113.834 752.783 114.401 752.783 115.027C752.783 115.67 752.881 116.235 753.077 116.721C753.273 117.207 753.563 117.586 753.946 117.859C754.334 118.131 754.811 118.268 755.378 118.268ZM766.973 110.182V111.716H761.61V110.182H766.973ZM763.049 107.83H764.96V117.117C764.96 117.488 765.015 117.767 765.126 117.955C765.237 118.138 765.38 118.263 765.554 118.332C765.733 118.396 765.927 118.428 766.136 118.428C766.289 118.428 766.424 118.417 766.539 118.396C766.654 118.374 766.743 118.357 766.807 118.344L767.152 119.923C767.042 119.966 766.884 120.009 766.679 120.051C766.475 120.098 766.219 120.124 765.912 120.128C765.409 120.136 764.941 120.047 764.506 119.859C764.071 119.672 763.72 119.382 763.451 118.99C763.183 118.598 763.049 118.106 763.049 117.513V107.83ZM771.21 114.17V120H769.298V106.909H771.184V111.78H771.306C771.536 111.251 771.887 110.832 772.36 110.521C772.833 110.21 773.451 110.054 774.214 110.054C774.887 110.054 775.475 110.192 775.978 110.469C776.485 110.746 776.877 111.16 777.154 111.71C777.436 112.255 777.576 112.937 777.576 113.755V120H775.665V113.985C775.665 113.265 775.48 112.707 775.109 112.31C774.738 111.91 774.222 111.71 773.562 111.71C773.11 111.71 772.705 111.805 772.347 111.997C771.994 112.189 771.715 112.47 771.51 112.841C771.31 113.207 771.21 113.651 771.21 114.17Z" fill="black"/>
<path d="M818.472 106.909H820.869L825.037 117.085H825.19L829.358 106.909H831.755V120H829.876V110.527H829.754L825.894 119.981H824.334L820.473 110.521H820.352V120H818.472V106.909ZM837.331 120.217C836.708 120.217 836.146 120.102 835.643 119.872C835.14 119.638 834.742 119.299 834.448 118.856C834.158 118.413 834.013 117.869 834.013 117.226C834.013 116.672 834.12 116.216 834.333 115.858C834.546 115.5 834.833 115.217 835.196 115.008C835.558 114.799 835.963 114.641 836.41 114.535C836.858 114.428 837.313 114.347 837.778 114.292C838.366 114.224 838.843 114.168 839.21 114.126C839.576 114.079 839.843 114.004 840.009 113.902C840.175 113.8 840.258 113.634 840.258 113.403V113.359C840.258 112.8 840.1 112.368 839.785 112.061C839.474 111.754 839.009 111.601 838.392 111.601C837.748 111.601 837.241 111.744 836.87 112.029C836.504 112.31 836.25 112.624 836.11 112.969L834.313 112.56C834.527 111.963 834.838 111.482 835.247 111.115C835.66 110.744 836.135 110.476 836.672 110.31C837.209 110.139 837.774 110.054 838.366 110.054C838.758 110.054 839.174 110.101 839.612 110.195C840.056 110.284 840.469 110.45 840.853 110.693C841.24 110.936 841.558 111.283 841.805 111.735C842.052 112.183 842.176 112.764 842.176 113.48V120H840.309V118.658H840.233C840.109 118.905 839.924 119.148 839.676 119.386C839.429 119.625 839.112 119.823 838.724 119.981C838.336 120.138 837.872 120.217 837.331 120.217ZM837.746 118.683C838.274 118.683 838.726 118.579 839.101 118.37C839.48 118.161 839.768 117.888 839.964 117.552C840.164 117.211 840.264 116.847 840.264 116.459V115.193C840.196 115.261 840.064 115.325 839.868 115.385C839.676 115.44 839.457 115.489 839.21 115.532C838.963 115.57 838.722 115.607 838.487 115.641C838.253 115.67 838.057 115.696 837.899 115.717C837.529 115.764 837.19 115.843 836.883 115.954C836.581 116.065 836.338 116.224 836.154 116.433C835.975 116.638 835.886 116.911 835.886 117.251C835.886 117.724 836.061 118.082 836.41 118.325C836.759 118.564 837.205 118.683 837.746 118.683ZM844.721 120V110.182H846.569V111.741H846.671C846.85 111.213 847.165 110.798 847.617 110.495C848.073 110.188 848.589 110.035 849.164 110.035C849.283 110.035 849.424 110.039 849.586 110.048C849.752 110.056 849.882 110.067 849.976 110.08V111.908C849.899 111.886 849.763 111.863 849.566 111.837C849.37 111.808 849.174 111.793 848.978 111.793C848.527 111.793 848.124 111.888 847.77 112.08C847.421 112.268 847.144 112.53 846.939 112.866C846.735 113.199 846.633 113.578 846.633 114.004V120H844.721ZM853.387 116.67L853.375 114.337H853.707L857.619 110.182H859.907L855.446 114.912H855.145L853.387 116.67ZM851.63 120V106.909H853.541V120H851.63ZM857.83 120L854.314 115.334L855.631 113.998L860.176 120H857.83ZM865.476 120.198C864.509 120.198 863.676 119.991 862.977 119.578C862.282 119.161 861.745 118.575 861.366 117.82C860.991 117.062 860.804 116.173 860.804 115.155C860.804 114.149 860.991 113.263 861.366 112.496C861.745 111.729 862.274 111.13 862.951 110.7C863.633 110.269 864.43 110.054 865.342 110.054C865.896 110.054 866.433 110.146 866.953 110.329C867.473 110.512 867.939 110.8 868.353 111.192C868.766 111.584 869.092 112.093 869.331 112.719C869.569 113.342 869.689 114.098 869.689 114.989V115.666H861.884V114.234H867.816C867.816 113.732 867.714 113.286 867.509 112.898C867.304 112.506 867.017 112.197 866.646 111.972C866.28 111.746 865.849 111.633 865.355 111.633C864.818 111.633 864.349 111.765 863.949 112.029C863.552 112.289 863.245 112.63 863.028 113.052C862.815 113.469 862.709 113.923 862.709 114.413V115.532C862.709 116.188 862.824 116.746 863.054 117.207C863.288 117.667 863.614 118.018 864.032 118.261C864.449 118.5 864.937 118.619 865.495 118.619C865.858 118.619 866.188 118.568 866.486 118.466C866.785 118.359 867.042 118.202 867.26 117.993C867.477 117.784 867.643 117.526 867.758 117.219L869.567 117.545C869.422 118.078 869.162 118.545 868.787 118.945C868.417 119.342 867.95 119.651 867.388 119.872C866.829 120.089 866.192 120.198 865.476 120.198ZM876.392 110.182V111.716H871.029V110.182H876.392ZM872.468 107.83H874.379V117.117C874.379 117.488 874.434 117.767 874.545 117.955C874.656 118.138 874.799 118.263 874.973 118.332C875.152 118.396 875.346 118.428 875.555 118.428C875.708 118.428 875.843 118.417 875.958 118.396C876.073 118.374 876.162 118.357 876.226 118.344L876.571 119.923C876.46 119.966 876.303 120.009 876.098 120.051C875.894 120.098 875.638 120.124 875.331 120.128C874.828 120.136 874.36 120.047 873.925 119.859C873.49 119.672 873.139 119.382 872.87 118.99C872.602 118.598 872.468 118.106 872.468 117.513V107.83ZM883.27 123.682V110.182H885.137V111.773H885.296C885.407 111.569 885.567 111.332 885.776 111.064C885.985 110.795 886.274 110.561 886.645 110.361C887.016 110.156 887.506 110.054 888.115 110.054C888.908 110.054 889.615 110.254 890.237 110.655C890.86 111.055 891.348 111.633 891.701 112.387C892.059 113.141 892.238 114.049 892.238 115.11C892.238 116.171 892.061 117.081 891.708 117.839C891.354 118.594 890.868 119.175 890.25 119.585C889.632 119.989 888.927 120.192 888.134 120.192C887.538 120.192 887.05 120.092 886.671 119.891C886.296 119.691 886.002 119.457 885.789 119.188C885.576 118.92 885.411 118.681 885.296 118.472H885.181V123.682H883.27ZM885.143 115.091C885.143 115.781 885.243 116.386 885.443 116.906C885.644 117.426 885.934 117.833 886.313 118.127C886.692 118.417 887.157 118.562 887.706 118.562C888.277 118.562 888.755 118.411 889.138 118.108C889.522 117.801 889.811 117.386 890.007 116.862C890.208 116.337 890.308 115.747 890.308 115.091C890.308 114.443 890.21 113.862 890.014 113.346C889.822 112.83 889.532 112.423 889.144 112.125C888.761 111.827 888.282 111.678 887.706 111.678C887.152 111.678 886.684 111.82 886.3 112.106C885.921 112.391 885.633 112.79 885.437 113.301C885.241 113.812 885.143 114.409 885.143 115.091ZM894.38 120V110.182H896.227V111.741H896.329C896.508 111.213 896.823 110.798 897.275 110.495C897.731 110.188 898.247 110.035 898.822 110.035C898.941 110.035 899.082 110.039 899.244 110.048C899.41 110.056 899.54 110.067 899.634 110.08V111.908C899.557 111.886 899.421 111.863 899.225 111.837C899.029 111.808 898.833 111.793 898.637 111.793C898.185 111.793 897.782 111.888 897.429 112.08C897.079 112.268 896.802 112.53 896.598 112.866C896.393 113.199 896.291 113.578 896.291 114.004V120H894.38ZM905.168 120.198C904.2 120.198 903.367 119.991 902.668 119.578C901.974 119.161 901.437 118.575 901.058 117.82C900.683 117.062 900.495 116.173 900.495 115.155C900.495 114.149 900.683 113.263 901.058 112.496C901.437 111.729 901.965 111.13 902.643 110.7C903.325 110.269 904.122 110.054 905.033 110.054C905.587 110.054 906.124 110.146 906.644 110.329C907.164 110.512 907.631 110.8 908.044 111.192C908.457 111.584 908.783 112.093 909.022 112.719C909.261 113.342 909.38 114.098 909.38 114.989V115.666H901.575V114.234H907.507C907.507 113.732 907.405 113.286 907.2 112.898C906.996 112.506 906.708 112.197 906.337 111.972C905.971 111.746 905.541 111.633 905.046 111.633C904.509 111.633 904.041 111.765 903.64 112.029C903.244 112.289 902.937 112.63 902.72 113.052C902.506 113.469 902.4 113.923 902.4 114.413V115.532C902.4 116.188 902.515 116.746 902.745 117.207C902.979 117.667 903.305 118.018 903.723 118.261C904.141 118.5 904.629 118.619 905.187 118.619C905.549 118.619 905.879 118.568 906.178 118.466C906.476 118.359 906.734 118.202 906.951 117.993C907.168 117.784 907.335 117.526 907.45 117.219L909.259 117.545C909.114 118.078 908.854 118.545 908.479 118.945C908.108 119.342 907.641 119.651 907.079 119.872C906.521 120.089 905.884 120.198 905.168 120.198ZM918.858 112.579L917.126 112.886C917.053 112.664 916.938 112.453 916.78 112.253C916.627 112.053 916.418 111.888 916.154 111.761C915.89 111.633 915.56 111.569 915.163 111.569C914.622 111.569 914.17 111.69 913.808 111.933C913.446 112.172 913.265 112.481 913.265 112.86C913.265 113.188 913.386 113.452 913.629 113.653C913.872 113.853 914.264 114.017 914.805 114.145L916.365 114.503C917.268 114.712 917.942 115.033 918.385 115.468C918.828 115.903 919.05 116.467 919.05 117.162C919.05 117.75 918.879 118.274 918.538 118.734C918.202 119.19 917.731 119.548 917.126 119.808C916.525 120.068 915.828 120.198 915.035 120.198C913.936 120.198 913.039 119.964 912.344 119.495C911.65 119.022 911.224 118.351 911.066 117.482L912.913 117.2C913.028 117.682 913.265 118.046 913.623 118.293C913.981 118.536 914.447 118.658 915.023 118.658C915.649 118.658 916.15 118.528 916.525 118.268C916.9 118.004 917.087 117.682 917.087 117.303C917.087 116.996 916.972 116.738 916.742 116.529C916.516 116.32 916.169 116.163 915.7 116.056L914.038 115.692C913.122 115.483 912.445 115.151 912.006 114.695C911.571 114.239 911.354 113.661 911.354 112.962C911.354 112.383 911.516 111.876 911.839 111.441C912.163 111.006 912.611 110.668 913.182 110.425C913.753 110.178 914.407 110.054 915.144 110.054C916.205 110.054 917.04 110.284 917.65 110.744C918.259 111.2 918.662 111.812 918.858 112.579ZM925.383 120.198C924.415 120.198 923.582 119.991 922.883 119.578C922.189 119.161 921.652 118.575 921.272 117.82C920.897 117.062 920.71 116.173 920.71 115.155C920.71 114.149 920.897 113.263 921.272 112.496C921.652 111.729 922.18 111.13 922.858 110.7C923.54 110.269 924.336 110.054 925.248 110.054C925.802 110.054 926.339 110.146 926.859 110.329C927.379 110.512 927.846 110.8 928.259 111.192C928.672 111.584 928.998 112.093 929.237 112.719C929.476 113.342 929.595 114.098 929.595 114.989V115.666H921.79V114.234H927.722C927.722 113.732 927.62 113.286 927.415 112.898C927.211 112.506 926.923 112.197 926.552 111.972C926.186 111.746 925.755 111.633 925.261 111.633C924.724 111.633 924.255 111.765 923.855 112.029C923.459 112.289 923.152 112.63 922.934 113.052C922.721 113.469 922.615 113.923 922.615 114.413V115.532C922.615 116.188 922.73 116.746 922.96 117.207C923.194 117.667 923.52 118.018 923.938 118.261C924.356 118.5 924.843 118.619 925.402 118.619C925.764 118.619 926.094 118.568 926.392 118.466C926.691 118.359 926.949 118.202 927.166 117.993C927.383 117.784 927.549 117.526 927.665 117.219L929.473 117.545C929.329 118.078 929.069 118.545 928.694 118.945C928.323 119.342 927.856 119.651 927.294 119.872C926.736 120.089 926.098 120.198 925.383 120.198ZM933.627 114.17V120H931.715V110.182H933.55V111.78H933.671C933.897 111.26 934.251 110.842 934.733 110.527C935.218 110.212 935.83 110.054 936.567 110.054C937.236 110.054 937.822 110.195 938.325 110.476C938.828 110.753 939.218 111.166 939.495 111.716C939.772 112.266 939.91 112.945 939.91 113.755V120H937.999V113.985C937.999 113.273 937.813 112.717 937.443 112.317C937.072 111.912 936.563 111.71 935.915 111.71C935.472 111.71 935.078 111.805 934.733 111.997C934.392 112.189 934.121 112.47 933.921 112.841C933.725 113.207 933.627 113.651 933.627 114.17ZM946.609 120.198C945.659 120.198 944.84 119.983 944.154 119.553C943.473 119.118 942.948 118.519 942.582 117.756C942.215 116.994 942.032 116.12 942.032 115.136C942.032 114.138 942.22 113.259 942.595 112.496C942.97 111.729 943.498 111.13 944.18 110.7C944.862 110.269 945.665 110.054 946.59 110.054C947.335 110.054 948 110.192 948.584 110.469C949.168 110.742 949.639 111.126 949.997 111.62C950.359 112.114 950.574 112.692 950.642 113.352H948.782C948.68 112.892 948.446 112.496 948.079 112.163C947.717 111.831 947.231 111.665 946.622 111.665C946.089 111.665 945.622 111.805 945.222 112.087C944.826 112.364 944.517 112.76 944.295 113.276C944.073 113.787 943.963 114.392 943.963 115.091C943.963 115.807 944.071 116.425 944.289 116.945C944.506 117.464 944.813 117.867 945.209 118.153C945.61 118.438 946.081 118.581 946.622 118.581C946.984 118.581 947.312 118.515 947.606 118.383C947.904 118.246 948.154 118.053 948.354 117.801C948.559 117.55 948.701 117.247 948.782 116.893H950.642C950.574 117.528 950.367 118.095 950.022 118.594C949.677 119.092 949.215 119.484 948.635 119.77C948.06 120.055 947.384 120.198 946.609 120.198ZM956.918 120.198C955.95 120.198 955.117 119.991 954.418 119.578C953.724 119.161 953.187 118.575 952.808 117.82C952.433 117.062 952.245 116.173 952.245 115.155C952.245 114.149 952.433 113.263 952.808 112.496C953.187 111.729 953.715 111.13 954.393 110.7C955.075 110.269 955.872 110.054 956.783 110.054C957.337 110.054 957.874 110.146 958.394 110.329C958.914 110.512 959.381 110.8 959.794 111.192C960.207 111.584 960.533 112.093 960.772 112.719C961.011 113.342 961.13 114.098 961.13 114.989V115.666H953.325V114.234H959.257C959.257 113.732 959.155 113.286 958.95 112.898C958.746 112.506 958.458 112.197 958.087 111.972C957.721 111.746 957.291 111.633 956.796 111.633C956.259 111.633 955.791 111.765 955.39 112.029C954.994 112.289 954.687 112.63 954.47 113.052C954.256 113.469 954.15 113.923 954.15 114.413V115.532C954.15 116.188 954.265 116.746 954.495 117.207C954.729 117.667 955.055 118.018 955.473 118.261C955.891 118.5 956.379 118.619 956.937 118.619C957.299 118.619 957.629 118.568 957.928 118.466C958.226 118.359 958.484 118.202 958.701 117.993C958.918 117.784 959.085 117.526 959.2 117.219L961.009 117.545C960.864 118.078 960.604 118.545 960.229 118.945C959.858 119.342 959.391 119.651 958.829 119.872C958.271 120.089 957.634 120.198 956.918 120.198Z" fill="black"/>
<circle cx="889.4" cy="55.4" r="32.4" fill="#01345C"/>
<path d="M905.631 55.2503C905.631 50.906 903.905 46.7397 900.833 43.6678C897.761 40.5959 893.595 38.8701 889.25 38.8701M905.631 55.2503H872.87M905.631 55.2503C905.631 59.5946 903.905 63.761 900.833 66.8329C897.761 69.9048 893.595 71.6305 889.25 71.6305M889.25 38.8701C884.906 38.8701 880.74 40.5959 877.668 43.6678C874.596 46.7397 872.87 50.906 872.87 55.2503M889.25 38.8701C888.365 38.8701 882.167 46.2031 882.167 55.2503C882.167 64.2975 888.365 71.6305 889.25 71.6305M889.25 38.8701C890.136 38.8701 896.334 46.2031 896.334 55.2503C896.334 64.2975 890.136 71.6305 889.25 71.6305M872.87 55.2503C872.87 59.5946 874.596 63.761 877.668 66.8329C880.74 69.9048 884.906 71.6305 889.25 71.6305" stroke="white" stroke-width="3" stroke-linecap="round" stroke-linejoin="round"/>
</svg>
